<?xml version="1.0" encoding="UTF-8"?>
<svg xmlns="http://www.w3.org/2000/svg" xmlns:xlink="http://www.w3.org/1999/xlink" width="125px" height="104px" viewBox="0 0 124 104" version="1.1">
<g id="surface1">
<path style=" stroke:none;fill-rule:nonzero;fill:rgb(100%,100%,100%);fill-opacity:1;" d="M 38.882812 -0.0078125 C 38.957031 -0.0078125 39.027344 -0.0078125 39.101562 -0.0078125 C 39.296875 -0.0078125 39.496094 -0.0078125 39.695312 -0.0078125 C 39.910156 -0.0078125 40.125 -0.0078125 40.339844 -0.0078125 C 40.769531 -0.0078125 41.195312 -0.0078125 41.621094 -0.0078125 C 42.132812 -0.0078125 42.644531 -0.0078125 43.15625 -0.0078125 C 44.394531 -0.0117188 45.632812 -0.0117188 46.867188 -0.0117188 C 47.453125 -0.0117188 48.039062 -0.0117188 48.625 -0.0117188 C 50.628906 -0.0117188 52.632812 -0.0117188 54.640625 -0.0117188 C 54.765625 -0.0117188 54.890625 -0.0117188 55.015625 -0.0117188 C 55.144531 -0.0117188 55.269531 -0.0117188 55.394531 -0.0117188 C 55.648438 -0.0117188 55.902344 -0.0117188 56.152344 -0.0117188 C 56.21875 -0.0117188 56.28125 -0.0117188 56.34375 -0.0117188 C 58.378906 -0.0117188 60.410156 -0.015625 62.445312 -0.015625 C 64.59375 -0.015625 66.746094 -0.015625 68.894531 -0.015625 C 69.132812 -0.015625 69.367188 -0.015625 69.605469 -0.015625 C 69.691406 -0.015625 69.691406 -0.015625 69.78125 -0.015625 C 70.714844 -0.015625 71.652344 -0.0195312 72.585938 -0.0195312 C 73.527344 -0.0195312 74.464844 -0.0195312 75.40625 -0.0195312 C 75.964844 -0.0195312 76.523438 -0.0195312 77.082031 -0.0195312 C 77.453125 -0.0195312 77.828125 -0.0195312 78.199219 -0.0195312 C 78.414062 -0.0195312 78.625 -0.0195312 78.835938 -0.0195312 C 80.011719 -0.0234375 81.183594 0.015625 82.332031 0.296875 C 82.386719 0.308594 82.441406 0.324219 82.5 0.335938 C 84.621094 0.867188 86.609375 1.90625 88.199219 3.425781 C 88.269531 3.492188 88.34375 3.554688 88.421875 3.621094 C 90.773438 5.6875 92.152344 8.921875 92.425781 12.007812 C 92.445312 12.308594 92.445312 12.613281 92.445312 12.914062 C 92.445312 12.988281 92.445312 13.0625 92.445312 13.136719 C 92.445312 13.335938 92.445312 13.539062 92.445312 13.738281 C 92.445312 13.957031 92.445312 14.175781 92.445312 14.398438 C 92.445312 14.78125 92.445312 15.164062 92.445312 15.550781 C 92.441406 16.121094 92.441406 16.691406 92.441406 17.261719 C 92.441406 18.222656 92.441406 19.183594 92.441406 20.144531 C 92.441406 21.097656 92.441406 22.046875 92.441406 23 C 92.441406 23.058594 92.441406 23.117188 92.441406 23.179688 C 92.441406 23.476562 92.441406 23.777344 92.441406 24.078125 C 92.441406 26.207031 92.441406 28.335938 92.441406 30.460938 C 92.441406 32.527344 92.441406 34.597656 92.441406 36.664062 C 92.441406 36.726562 92.441406 36.789062 92.441406 36.855469 C 92.441406 37.496094 92.441406 38.136719 92.441406 38.773438 C 92.441406 40.078125 92.441406 41.382812 92.441406 42.6875 C 92.441406 42.746094 92.441406 42.804688 92.441406 42.867188 C 92.4375 46.867188 92.4375 50.871094 92.4375 54.871094 C 92.390625 54.875 92.34375 54.878906 92.292969 54.882812 C 92.117188 54.890625 91.9375 54.902344 91.757812 54.914062 C 91.683594 54.917969 91.605469 54.921875 91.53125 54.925781 C 90.441406 54.988281 89.390625 55.15625 88.355469 55.503906 C 88.308594 55.519531 88.265625 55.535156 88.21875 55.550781 C 87.234375 55.890625 86.261719 56.355469 85.421875 56.980469 C 85.371094 57.019531 85.316406 57.0625 85.261719 57.101562 C 84.460938 57.703125 83.738281 58.351562 83.121094 59.140625 C 83.078125 59.195312 83.035156 59.246094 82.992188 59.300781 C 81.46875 61.226562 80.648438 63.601562 80.578125 66.054688 C 80.574219 66.125 80.574219 66.199219 80.570312 66.269531 C 80.566406 66.441406 80.558594 66.613281 80.554688 66.785156 C 76.554688 66.789062 72.550781 66.789062 68.550781 66.789062 C 68.492188 66.789062 68.433594 66.789062 68.371094 66.789062 C 67.082031 66.789062 65.796875 66.789062 64.507812 66.789062 C 63.875 66.792969 63.246094 66.792969 62.613281 66.792969 C 62.550781 66.792969 62.488281 66.792969 62.421875 66.792969 C 60.386719 66.792969 58.351562 66.792969 56.316406 66.792969 C 54.222656 66.792969 52.128906 66.796875 50.035156 66.796875 C 49.742188 66.796875 49.445312 66.796875 49.148438 66.796875 C 49.0625 66.796875 49.0625 66.796875 48.972656 66.796875 C 48.039062 66.796875 47.101562 66.796875 46.164062 66.796875 C 45.222656 66.796875 44.28125 66.796875 43.339844 66.796875 C 42.78125 66.796875 42.222656 66.796875 41.664062 66.796875 C 41.289062 66.796875 40.914062 66.796875 40.542969 66.796875 C 40.328125 66.796875 40.117188 66.796875 39.902344 66.796875 C 38.804688 66.800781 37.71875 66.78125 36.636719 66.5625 C 36.578125 66.550781 36.523438 66.539062 36.464844 66.527344 C 35.933594 66.417969 35.421875 66.277344 34.914062 66.101562 C 34.847656 66.078125 34.847656 66.078125 34.78125 66.054688 C 33.402344 65.570312 32.121094 64.871094 30.988281 63.9375 C 30.933594 63.898438 30.882812 63.855469 30.832031 63.816406 C 30.03125 63.15625 29.289062 62.410156 28.683594 61.566406 C 28.640625 61.507812 28.59375 61.445312 28.550781 61.386719 C 28.234375 60.953125 27.953125 60.503906 27.6875 60.039062 C 27.671875 60.003906 27.652344 59.972656 27.628906 59.9375 C 26.976562 58.78125 26.554688 57.511719 26.289062 56.210938 C 26.277344 56.160156 26.269531 56.109375 26.257812 56.054688 C 26.0625 55.046875 26.050781 54.042969 26.054688 53.019531 C 26.054688 52.800781 26.054688 52.585938 26.050781 52.367188 C 26.050781 51.988281 26.050781 51.609375 26.050781 51.230469 C 26.050781 50.667969 26.050781 50.101562 26.050781 49.539062 C 26.050781 48.472656 26.050781 47.40625 26.050781 46.339844 C 26.050781 45.515625 26.050781 44.691406 26.050781 43.871094 C 26.050781 43.75 26.050781 43.632812 26.050781 43.515625 C 26.050781 43.335938 26.050781 43.15625 26.050781 42.980469 C 26.050781 41.320312 26.050781 39.660156 26.050781 38 C 26.050781 37.9375 26.050781 37.875 26.050781 37.8125 C 26.050781 37.496094 26.050781 37.179688 26.050781 36.863281 C 26.050781 36.800781 26.050781 36.738281 26.050781 36.671875 C 26.050781 36.542969 26.050781 36.417969 26.050781 36.289062 C 26.050781 34.3125 26.050781 32.332031 26.050781 30.351562 C 26.046875 28.128906 26.046875 25.902344 26.046875 23.675781 C 26.046875 23.441406 26.046875 23.203125 26.046875 22.964844 C 26.046875 22.90625 26.046875 22.847656 26.046875 22.789062 C 26.046875 21.90625 26.046875 21.027344 26.046875 20.144531 C 26.046875 19.144531 26.046875 18.140625 26.046875 17.136719 C 26.046875 16.578125 26.046875 16.015625 26.046875 15.457031 C 26.046875 15.082031 26.046875 14.707031 26.046875 14.332031 C 26.046875 14.117188 26.046875 13.90625 26.046875 13.691406 C 26.042969 12.328125 26.144531 11.023438 26.484375 9.699219 C 26.496094 9.660156 26.503906 9.621094 26.515625 9.582031 C 27.339844 6.300781 29.65625 3.484375 32.507812 1.769531 C 34.4375 0.636719 36.644531 -0.0117188 38.882812 -0.0078125 Z M 37.050781 6.679688 C 36.996094 6.699219 36.996094 6.699219 36.9375 6.71875 C 35.242188 7.332031 33.8125 8.589844 33.027344 10.226562 C 32.585938 11.195312 32.390625 12.179688 32.394531 13.246094 C 32.394531 13.316406 32.394531 13.386719 32.394531 13.457031 C 32.394531 13.652344 32.394531 13.851562 32.394531 14.046875 C 32.394531 14.257812 32.390625 14.472656 32.390625 14.683594 C 32.390625 15.105469 32.390625 15.527344 32.390625 15.953125 C 32.390625 16.457031 32.390625 16.964844 32.390625 17.46875 C 32.390625 18.691406 32.390625 19.914062 32.390625 21.136719 C 32.390625 21.714844 32.390625 22.296875 32.390625 22.875 C 32.386719 24.855469 32.386719 26.835938 32.386719 28.816406 C 32.386719 28.941406 32.386719 29.066406 32.386719 29.191406 C 32.386719 29.3125 32.386719 29.4375 32.386719 29.5625 C 32.386719 29.8125 32.386719 30.0625 32.386719 30.3125 C 32.386719 30.375 32.386719 30.4375 32.386719 30.5 C 32.386719 32.511719 32.386719 34.519531 32.386719 36.53125 C 32.382812 38.65625 32.382812 40.78125 32.382812 42.90625 C 32.382812 43.140625 32.382812 43.375 32.382812 43.609375 C 32.382812 43.664062 32.382812 43.722656 32.382812 43.78125 C 32.382812 44.707031 32.382812 45.628906 32.382812 46.554688 C 32.382812 47.484375 32.382812 48.414062 32.382812 49.34375 C 32.382812 49.894531 32.382812 50.445312 32.378906 50.996094 C 32.378906 51.367188 32.378906 51.734375 32.378906 52.105469 C 32.382812 52.3125 32.382812 52.523438 32.378906 52.734375 C 32.378906 53.753906 32.375 54.765625 32.71875 55.742188 C 32.742188 55.8125 32.742188 55.8125 32.765625 55.878906 C 33.042969 56.65625 33.4375 57.355469 33.96875 57.984375 C 33.992188 58.007812 34.015625 58.035156 34.039062 58.0625 C 35.003906 59.21875 36.414062 60.039062 37.894531 60.300781 C 37.96875 60.316406 37.96875 60.316406 38.039062 60.328125 C 38.726562 60.4375 39.417969 60.421875 40.113281 60.421875 C 40.261719 60.421875 40.40625 60.421875 40.554688 60.421875 C 40.871094 60.421875 41.1875 60.421875 41.503906 60.421875 C 41.976562 60.417969 42.449219 60.417969 42.917969 60.417969 C 43.710938 60.417969 44.503906 60.417969 45.296875 60.417969 C 46.082031 60.417969 46.867188 60.417969 47.652344 60.417969 C 47.703125 60.417969 47.75 60.417969 47.800781 60.417969 C 48.046875 60.417969 48.296875 60.417969 48.546875 60.417969 C 50.300781 60.417969 52.058594 60.417969 53.8125 60.414062 C 55.519531 60.414062 57.226562 60.414062 58.929688 60.414062 C 58.984375 60.414062 59.035156 60.414062 59.089844 60.414062 C 59.617188 60.414062 60.148438 60.414062 60.675781 60.414062 C 61.75 60.414062 62.828125 60.414062 63.902344 60.410156 C 63.953125 60.410156 64.003906 60.410156 64.054688 60.410156 C 67.355469 60.410156 70.65625 60.410156 73.960938 60.40625 C 73.980469 60.347656 73.980469 60.347656 74 60.289062 C 74.0625 60.105469 74.125 59.925781 74.1875 59.746094 C 74.21875 59.652344 74.21875 59.652344 74.25 59.558594 C 74.390625 59.152344 74.535156 58.753906 74.710938 58.363281 C 74.734375 58.316406 74.753906 58.265625 74.777344 58.214844 C 74.800781 58.167969 74.820312 58.121094 74.839844 58.074219 C 74.859375 58.027344 74.878906 57.984375 74.898438 57.941406 C 74.953125 57.824219 74.953125 57.824219 75.058594 57.664062 C 75.140625 57.421875 75.054688 57.261719 74.953125 57.035156 C 74.921875 56.960938 74.921875 56.960938 74.890625 56.886719 C 74.816406 56.710938 74.738281 56.539062 74.660156 56.367188 C 74.597656 56.230469 74.539062 56.09375 74.476562 55.957031 C 74.460938 55.921875 74.445312 55.886719 74.425781 55.847656 C 74.226562 55.402344 74.035156 54.957031 73.84375 54.511719 C 73.824219 54.46875 73.804688 54.425781 73.785156 54.378906 C 73.710938 54.207031 73.636719 54.03125 73.558594 53.855469 C 73.421875 53.53125 73.28125 53.210938 73.140625 52.886719 C 73.109375 52.816406 73.109375 52.816406 73.082031 52.746094 C 73.003906 52.570312 72.925781 52.390625 72.847656 52.210938 C 72.828125 52.167969 72.8125 52.128906 72.792969 52.085938 C 72.777344 52.042969 72.757812 52.003906 72.742188 51.960938 C 72.707031 51.882812 72.671875 51.804688 72.640625 51.726562 C 72.5625 51.542969 72.480469 51.363281 72.398438 51.183594 C 72.375 51.132812 72.375 51.132812 72.351562 51.082031 C 72.3125 50.996094 72.269531 50.90625 72.230469 50.820312 C 72.167969 50.621094 72.183594 50.488281 72.234375 50.285156 C 72.292969 50.183594 72.292969 50.183594 72.367188 50.101562 C 72.394531 50.070312 72.421875 50.039062 72.449219 50.003906 C 72.480469 49.972656 72.511719 49.941406 72.539062 49.90625 C 72.570312 49.875 72.601562 49.839844 72.632812 49.804688 C 72.726562 49.699219 72.820312 49.597656 72.914062 49.496094 C 72.960938 49.441406 73.011719 49.386719 73.0625 49.332031 C 73.175781 49.203125 73.292969 49.074219 73.410156 48.949219 C 73.5 48.851562 73.585938 48.757812 73.671875 48.660156 C 74.238281 48.042969 74.238281 48.042969 74.527344 47.800781 C 74.65625 47.691406 74.777344 47.574219 74.902344 47.457031 C 75.886719 46.527344 75.886719 46.527344 76.210938 46.492188 C 76.339844 46.523438 76.339844 46.523438 76.488281 46.585938 C 76.550781 46.609375 76.609375 46.636719 76.671875 46.660156 C 76.746094 46.691406 76.820312 46.722656 76.890625 46.753906 C 76.933594 46.773438 76.976562 46.792969 77.019531 46.808594 C 77.335938 46.945312 77.648438 47.082031 77.960938 47.222656 C 78.265625 47.355469 78.574219 47.488281 78.878906 47.625 C 78.910156 47.636719 78.941406 47.652344 78.976562 47.664062 C 79.742188 48 80.511719 48.335938 81.28125 48.664062 C 81.347656 48.695312 81.410156 48.722656 81.476562 48.75 C 81.972656 48.964844 81.972656 48.964844 82.46875 49.175781 C 82.550781 49.210938 82.628906 49.246094 82.707031 49.285156 C 82.929688 49.382812 83.042969 49.410156 83.277344 49.339844 C 83.410156 49.28125 83.535156 49.21875 83.664062 49.152344 C 84.039062 48.96875 84.421875 48.8125 84.8125 48.664062 C 84.863281 48.648438 84.914062 48.628906 84.964844 48.609375 C 85.285156 48.488281 85.605469 48.378906 85.929688 48.273438 C 86.046875 48.242188 86.046875 48.242188 86.105469 48.179688 C 86.109375 48.101562 86.109375 48.023438 86.109375 47.945312 C 86.109375 47.894531 86.109375 47.84375 86.109375 47.789062 C 86.109375 47.707031 86.109375 47.707031 86.109375 47.617188 C 86.109375 47.558594 86.109375 47.5 86.109375 47.4375 C 86.109375 47.269531 86.109375 47.101562 86.109375 46.933594 C 86.109375 46.753906 86.113281 46.570312 86.113281 46.390625 C 86.113281 46.027344 86.113281 45.667969 86.113281 45.304688 C 86.113281 44.875 86.113281 44.441406 86.113281 44.007812 C 86.113281 42.964844 86.113281 41.917969 86.113281 40.871094 C 86.113281 40.378906 86.113281 39.882812 86.113281 39.386719 C 86.117188 37.695312 86.117188 36 86.117188 34.308594 C 86.117188 34.203125 86.117188 34.097656 86.117188 33.988281 C 86.117188 33.882812 86.117188 33.777344 86.117188 33.667969 C 86.117188 33.457031 86.117188 33.242188 86.117188 33.027344 C 86.117188 32.949219 86.117188 32.949219 86.117188 32.867188 C 86.117188 31.148438 86.117188 29.429688 86.117188 27.710938 C 86.121094 25.894531 86.121094 24.078125 86.121094 22.261719 C 86.121094 22.0625 86.121094 21.863281 86.121094 21.664062 C 86.121094 21.613281 86.121094 21.566406 86.121094 21.515625 C 86.121094 20.726562 86.121094 19.933594 86.121094 19.144531 C 86.121094 18.351562 86.125 17.554688 86.121094 16.761719 C 86.121094 16.289062 86.121094 15.816406 86.125 15.34375 C 86.125 15.03125 86.125 14.714844 86.125 14.398438 C 86.125 14.21875 86.125 14.039062 86.125 13.859375 C 86.128906 11.804688 85.675781 10.035156 84.273438 8.488281 C 84.214844 8.421875 84.214844 8.421875 84.160156 8.359375 C 83.09375 7.222656 81.441406 6.425781 79.882812 6.375 C 79.699219 6.371094 79.515625 6.371094 79.335938 6.371094 C 79.261719 6.371094 79.191406 6.371094 79.121094 6.371094 C 78.925781 6.371094 78.730469 6.371094 78.535156 6.371094 C 78.320312 6.371094 78.109375 6.371094 77.898438 6.371094 C 77.476562 6.371094 77.054688 6.371094 76.632812 6.371094 C 76.125 6.371094 75.621094 6.371094 75.117188 6.367188 C 73.894531 6.367188 72.675781 6.367188 71.453125 6.367188 C 70.878906 6.367188 70.300781 6.367188 69.722656 6.367188 C 67.746094 6.367188 65.765625 6.367188 63.789062 6.367188 C 63.667969 6.367188 63.542969 6.367188 63.417969 6.367188 C 63.292969 6.367188 63.167969 6.367188 63.042969 6.367188 C 62.796875 6.367188 62.546875 6.367188 62.296875 6.367188 C 62.234375 6.367188 62.171875 6.367188 62.109375 6.367188 C 60.101562 6.363281 58.09375 6.363281 56.089844 6.363281 C 53.96875 6.363281 51.847656 6.359375 49.722656 6.359375 C 49.492188 6.359375 49.257812 6.359375 49.027344 6.359375 C 48.96875 6.359375 48.910156 6.359375 48.851562 6.359375 C 47.929688 6.359375 47.007812 6.359375 46.085938 6.359375 C 45.15625 6.359375 44.230469 6.359375 43.300781 6.359375 C 42.75 6.359375 42.199219 6.359375 41.648438 6.359375 C 41.28125 6.359375 40.914062 6.359375 40.542969 6.359375 C 40.335938 6.359375 40.125 6.359375 39.914062 6.359375 C 38.460938 6.351562 38.460938 6.351562 37.050781 6.679688 Z M 37.050781 6.679688 "/>
<path style=" stroke:none;fill-rule:nonzero;fill:rgb(100%,100%,100%);fill-opacity:1;" d="M 59.21875 8.667969 C 59.285156 8.667969 59.351562 8.667969 59.421875 8.667969 C 59.496094 8.667969 59.570312 8.667969 59.644531 8.671875 C 59.722656 8.671875 59.800781 8.671875 59.875 8.675781 C 61.066406 8.695312 62.25 8.804688 63.421875 8.988281 C 63.457031 8.992188 63.492188 8.996094 63.527344 9.003906 C 64.421875 9.140625 64.421875 9.140625 64.644531 9.277344 C 64.769531 9.464844 64.839844 9.648438 64.902344 9.867188 C 64.921875 9.933594 64.941406 10 64.960938 10.066406 C 64.980469 10.136719 65.003906 10.210938 65.023438 10.28125 C 65.042969 10.359375 65.066406 10.433594 65.089844 10.507812 C 65.148438 10.714844 65.207031 10.917969 65.265625 11.125 C 65.324219 11.335938 65.386719 11.550781 65.449219 11.761719 C 65.535156 12.066406 65.625 12.375 65.710938 12.679688 C 65.855469 13.183594 66 13.691406 66.148438 14.195312 C 66.214844 14.421875 66.28125 14.648438 66.34375 14.875 C 66.398438 15.054688 66.449219 15.234375 66.5 15.414062 C 66.558594 15.613281 66.617188 15.8125 66.675781 16.011719 C 66.691406 16.070312 66.707031 16.128906 66.726562 16.191406 C 66.742188 16.246094 66.757812 16.296875 66.773438 16.351562 C 66.792969 16.421875 66.792969 16.421875 66.8125 16.492188 C 66.839844 16.605469 66.839844 16.605469 66.839844 16.710938 C 66.878906 16.722656 66.917969 16.738281 66.957031 16.753906 C 68.117188 17.230469 69.191406 17.910156 70.210938 18.644531 C 70.25 18.671875 70.289062 18.699219 70.332031 18.726562 C 70.417969 18.792969 70.5 18.855469 70.582031 18.925781 C 70.628906 18.957031 70.671875 18.992188 70.714844 19.027344 C 70.773438 19.074219 70.773438 19.074219 70.832031 19.125 C 71.179688 19.277344 71.691406 19.089844 72.050781 19.015625 C 72.109375 19.003906 72.167969 18.992188 72.226562 18.976562 C 72.417969 18.9375 72.613281 18.898438 72.804688 18.859375 C 72.9375 18.828125 73.074219 18.800781 73.207031 18.773438 C 73.527344 18.707031 73.84375 18.640625 74.160156 18.574219 C 74.761719 18.449219 75.363281 18.324219 75.964844 18.203125 C 76.164062 18.160156 76.359375 18.121094 76.554688 18.078125 C 76.84375 18.019531 77.132812 17.960938 77.421875 17.898438 C 77.558594 17.871094 77.695312 17.84375 77.835938 17.8125 C 77.910156 17.796875 77.984375 17.78125 78.058594 17.765625 C 78.121094 17.753906 78.183594 17.738281 78.246094 17.726562 C 78.433594 17.707031 78.550781 17.738281 78.722656 17.816406 C 78.832031 17.929688 78.921875 18.035156 79.015625 18.160156 C 79.042969 18.195312 79.066406 18.230469 79.097656 18.265625 C 79.183594 18.378906 79.265625 18.492188 79.351562 18.605469 C 79.394531 18.664062 79.394531 18.664062 79.4375 18.722656 C 80.121094 19.644531 80.71875 20.613281 81.289062 21.613281 C 81.3125 21.652344 81.335938 21.691406 81.359375 21.734375 C 81.421875 21.839844 81.480469 21.949219 81.539062 22.054688 C 81.574219 22.113281 81.605469 22.171875 81.640625 22.234375 C 81.71875 22.433594 81.738281 22.554688 81.707031 22.769531 C 81.640625 22.914062 81.554688 23.03125 81.460938 23.15625 C 81.421875 23.210938 81.421875 23.210938 81.382812 23.265625 C 81.300781 23.382812 81.214844 23.5 81.132812 23.613281 C 81.046875 23.730469 80.964844 23.847656 80.882812 23.960938 C 80.824219 24.039062 80.769531 24.121094 80.710938 24.199219 C 80.503906 24.488281 80.304688 24.78125 80.105469 25.074219 C 79.882812 25.40625 79.652344 25.730469 79.417969 26.050781 C 79.121094 26.453125 78.835938 26.867188 78.550781 27.277344 C 78.410156 27.484375 78.269531 27.6875 78.125 27.890625 C 78.074219 27.964844 78.023438 28.035156 77.972656 28.109375 C 77.886719 28.230469 77.800781 28.351562 77.714844 28.476562 C 77.683594 28.523438 77.648438 28.570312 77.613281 28.617188 C 77.574219 28.679688 77.574219 28.679688 77.53125 28.738281 C 77.371094 28.976562 77.394531 29.1875 77.441406 29.460938 C 77.480469 29.648438 77.519531 29.832031 77.5625 30.019531 C 77.738281 30.839844 77.867188 31.652344 77.910156 32.488281 C 77.910156 32.527344 77.914062 32.566406 77.914062 32.605469 C 77.925781 32.792969 77.933594 32.984375 77.9375 33.175781 C 77.941406 33.242188 77.945312 33.3125 77.949219 33.382812 C 77.949219 33.445312 77.953125 33.507812 77.953125 33.570312 C 78 33.78125 78.089844 33.859375 78.253906 34 C 78.285156 34.027344 78.3125 34.054688 78.347656 34.085938 C 78.375 34.109375 78.402344 34.132812 78.429688 34.160156 C 78.464844 34.1875 78.496094 34.214844 78.527344 34.246094 C 78.5625 34.273438 78.59375 34.300781 78.628906 34.332031 C 78.664062 34.363281 78.699219 34.390625 78.734375 34.421875 C 78.960938 34.621094 79.191406 34.8125 79.429688 35 C 79.589844 35.128906 79.746094 35.261719 79.902344 35.394531 C 80.136719 35.597656 80.375 35.792969 80.617188 35.988281 C 81.089844 36.367188 81.554688 36.757812 82.019531 37.15625 C 82.203125 37.316406 82.390625 37.472656 82.582031 37.625 C 82.832031 37.824219 83.078125 38.027344 83.328125 38.230469 C 83.367188 38.261719 83.40625 38.292969 83.445312 38.324219 C 83.480469 38.355469 83.519531 38.386719 83.558594 38.417969 C 83.605469 38.457031 83.605469 38.457031 83.65625 38.5 C 83.898438 38.726562 83.898438 38.726562 83.914062 38.90625 C 83.867188 39.296875 83.777344 39.671875 83.679688 40.054688 C 83.671875 40.089844 83.660156 40.125 83.652344 40.160156 C 82.671875 43.941406 82.671875 43.941406 82.074219 44.382812 C 81.875 44.421875 81.675781 44.445312 81.472656 44.457031 C 81.390625 44.464844 81.390625 44.464844 81.304688 44.46875 C 81.246094 44.472656 81.183594 44.476562 81.121094 44.480469 C 81.058594 44.484375 80.996094 44.488281 80.929688 44.492188 C 80.789062 44.5 80.652344 44.507812 80.511719 44.519531 C 80.292969 44.53125 80.074219 44.546875 79.851562 44.558594 C 79.503906 44.582031 79.15625 44.601562 78.808594 44.625 C 78.1875 44.664062 77.5625 44.703125 76.941406 44.742188 C 76.722656 44.753906 76.503906 44.769531 76.289062 44.78125 C 76.121094 44.792969 75.949219 44.804688 75.78125 44.8125 C 75.691406 44.820312 75.691406 44.820312 75.601562 44.824219 C 74.796875 44.816406 74.796875 44.816406 74.132812 45.171875 C 74.0625 45.257812 73.992188 45.347656 73.925781 45.4375 C 73.566406 45.90625 73.167969 46.34375 72.769531 46.777344 C 72.738281 46.8125 72.707031 46.847656 72.675781 46.882812 C 72.480469 47.085938 72.28125 47.277344 72.070312 47.460938 C 71.9375 47.574219 71.8125 47.691406 71.6875 47.808594 C 71.46875 48.007812 71.25 48.195312 71.011719 48.371094 C 70.917969 48.4375 70.917969 48.4375 70.871094 48.546875 C 70.863281 48.660156 70.859375 48.769531 70.851562 48.882812 C 70.851562 48.933594 70.851562 48.933594 70.847656 48.984375 C 70.84375 49.101562 70.839844 49.214844 70.835938 49.332031 C 70.832031 49.414062 70.828125 49.496094 70.828125 49.578125 C 70.816406 49.796875 70.808594 50.019531 70.800781 50.238281 C 70.792969 50.46875 70.785156 50.695312 70.777344 50.921875 C 70.742188 51.761719 70.714844 52.601562 70.683594 53.4375 C 70.679688 53.539062 70.679688 53.539062 70.675781 53.640625 C 70.664062 53.945312 70.65625 54.253906 70.644531 54.558594 C 70.636719 54.8125 70.625 55.070312 70.617188 55.324219 C 70.609375 55.445312 70.609375 55.5625 70.605469 55.683594 C 70.589844 56.140625 70.589844 56.140625 70.460938 56.351562 C 70.222656 56.5 69.980469 56.613281 69.722656 56.722656 C 69.667969 56.75 69.609375 56.773438 69.550781 56.800781 C 68.21875 57.367188 66.835938 57.855469 65.429688 58.195312 C 65.386719 58.203125 65.347656 58.214844 65.304688 58.226562 C 65.167969 58.25 65.089844 58.242188 64.957031 58.195312 C 64.71875 57.988281 64.527344 57.753906 64.328125 57.507812 C 64.289062 57.457031 64.25 57.410156 64.207031 57.359375 C 64.132812 57.265625 64.054688 57.171875 63.980469 57.078125 C 63.839844 56.90625 63.695312 56.746094 63.542969 56.585938 C 63.3125 56.335938 63.09375 56.078125 62.878906 55.808594 C 62.746094 55.648438 62.609375 55.496094 62.472656 55.347656 C 62.246094 55.105469 62.039062 54.855469 61.832031 54.597656 C 61.679688 54.410156 61.515625 54.234375 61.351562 54.054688 C 61.195312 53.886719 61.050781 53.714844 60.90625 53.535156 C 60.867188 53.488281 60.828125 53.441406 60.789062 53.394531 C 60.695312 53.273438 60.625 53.171875 60.554688 53.039062 C 60.398438 52.796875 60.25 52.621094 59.984375 52.5 C 59.46875 52.410156 58.933594 52.4375 58.410156 52.445312 C 58.050781 52.453125 57.695312 52.425781 57.335938 52.382812 C 57.28125 52.375 57.230469 52.367188 57.175781 52.363281 C 56.691406 52.296875 56.210938 52.207031 55.734375 52.101562 C 55.390625 52.03125 55.171875 51.996094 54.863281 52.191406 C 54.75 52.269531 54.640625 52.351562 54.53125 52.433594 C 54.492188 52.464844 54.449219 52.496094 54.40625 52.527344 C 54.320312 52.589844 54.234375 52.65625 54.148438 52.71875 C 54.023438 52.8125 53.894531 52.90625 53.769531 53 C 53.5625 53.152344 53.355469 53.308594 53.148438 53.460938 C 52.898438 53.648438 52.652344 53.832031 52.402344 54.015625 C 52.195312 54.171875 51.984375 54.324219 51.777344 54.480469 C 51.335938 54.808594 50.894531 55.132812 50.449219 55.457031 C 50.238281 55.609375 50.027344 55.761719 49.820312 55.917969 C 49.773438 55.953125 49.730469 55.988281 49.683594 56.023438 C 49.59375 56.085938 49.507812 56.152344 49.421875 56.21875 C 49.382812 56.246094 49.34375 56.277344 49.300781 56.304688 C 49.269531 56.332031 49.234375 56.359375 49.199219 56.386719 C 48.9375 56.5625 48.9375 56.5625 48.734375 56.546875 C 48.574219 56.507812 48.445312 56.453125 48.300781 56.378906 C 48.222656 56.335938 48.222656 56.335938 48.140625 56.296875 C 48.058594 56.253906 48.058594 56.253906 47.976562 56.207031 C 47.917969 56.175781 47.859375 56.144531 47.800781 56.113281 C 46.542969 55.4375 45.359375 54.644531 44.230469 53.765625 C 44.179688 53.726562 44.128906 53.6875 44.078125 53.648438 C 43.96875 53.554688 43.96875 53.554688 43.914062 53.449219 C 43.921875 53.023438 44.011719 52.605469 44.089844 52.191406 C 44.109375 52.089844 44.128906 51.988281 44.148438 51.890625 C 44.167969 51.78125 44.1875 51.675781 44.207031 51.570312 C 44.25 51.347656 44.292969 51.125 44.335938 50.902344 C 44.453125 50.269531 44.574219 49.632812 44.695312 49 C 44.761719 48.652344 44.828125 48.300781 44.894531 47.949219 C 44.933594 47.726562 44.976562 47.507812 45.019531 47.285156 C 45.050781 47.113281 45.082031 46.945312 45.117188 46.773438 C 45.128906 46.714844 45.140625 46.652344 45.152344 46.589844 C 45.246094 46.113281 45.246094 46.113281 45.117188 45.65625 C 45.097656 45.628906 45.074219 45.605469 45.054688 45.578125 C 45.027344 45.550781 45.003906 45.519531 44.976562 45.492188 C 44.953125 45.460938 44.925781 45.429688 44.898438 45.398438 C 44.167969 44.523438 43.59375 43.546875 43.046875 42.546875 C 43.007812 42.472656 43.007812 42.472656 42.964844 42.390625 C 42.9375 42.34375 42.910156 42.296875 42.886719 42.246094 C 42.863281 42.203125 42.839844 42.160156 42.8125 42.117188 C 42.765625 42.011719 42.765625 42.011719 42.765625 41.90625 C 42.40625 41.796875 42.046875 41.695312 41.6875 41.597656 C 41.632812 41.585938 41.582031 41.570312 41.527344 41.558594 C 41.351562 41.511719 41.179688 41.464844 41.007812 41.421875 C 40.882812 41.386719 40.761719 41.355469 40.640625 41.324219 C 40.320312 41.238281 40 41.15625 39.679688 41.070312 C 39.355469 40.984375 39.035156 40.902344 38.710938 40.816406 C 38.078125 40.648438 38.078125 40.648438 37.449219 40.484375 C 37.339844 40.457031 37.230469 40.425781 37.121094 40.398438 C 36.847656 40.324219 36.574219 40.253906 36.300781 40.183594 C 36.242188 40.171875 36.1875 40.15625 36.132812 40.144531 C 36.027344 40.117188 35.925781 40.089844 35.820312 40.0625 C 35.367188 39.949219 35.367188 39.949219 35.175781 39.796875 C 35.113281 39.652344 35.113281 39.652344 35.070312 39.460938 C 35.0625 39.425781 35.054688 39.390625 35.046875 39.351562 C 35.015625 39.21875 34.992188 39.085938 34.964844 38.953125 C 34.953125 38.898438 34.945312 38.84375 34.933594 38.789062 C 34.753906 37.847656 34.628906 36.902344 34.546875 35.949219 C 34.542969 35.90625 34.539062 35.863281 34.535156 35.820312 C 34.515625 35.582031 34.503906 35.34375 34.492188 35.105469 C 34.492188 35.039062 34.492188 35.039062 34.488281 34.972656 C 34.484375 34.828125 34.480469 34.683594 34.476562 34.539062 C 34.476562 34.492188 34.472656 34.449219 34.472656 34.402344 C 34.472656 34.359375 34.472656 34.316406 34.472656 34.273438 C 34.46875 34.214844 34.46875 34.214844 34.46875 34.160156 C 34.503906 34 34.582031 33.941406 34.703125 33.839844 C 34.808594 33.777344 34.917969 33.714844 35.027344 33.65625 C 35.058594 33.640625 35.089844 33.625 35.121094 33.605469 C 35.222656 33.554688 35.328125 33.5 35.429688 33.445312 C 35.535156 33.386719 35.644531 33.332031 35.753906 33.273438 C 35.824219 33.234375 35.894531 33.199219 35.96875 33.160156 C 36.269531 33 36.566406 32.839844 36.863281 32.675781 C 37.273438 32.449219 37.6875 32.222656 38.097656 32 C 38.214844 31.9375 38.328125 31.875 38.445312 31.8125 C 38.613281 31.71875 38.78125 31.628906 38.949219 31.539062 C 39.265625 31.367188 39.578125 31.199219 39.890625 31.027344 C 39.992188 30.96875 40.097656 30.914062 40.199219 30.855469 C 40.355469 30.773438 40.507812 30.691406 40.660156 30.605469 C 40.707031 30.582031 40.753906 30.558594 40.800781 30.53125 C 41.023438 30.40625 41.1875 30.3125 41.269531 30.054688 C 41.28125 30.015625 41.289062 29.980469 41.296875 29.941406 C 41.316406 29.867188 41.316406 29.867188 41.335938 29.792969 C 41.378906 29.617188 41.421875 29.441406 41.460938 29.265625 C 41.71875 28.203125 42.066406 27.195312 42.53125 26.207031 C 42.554688 26.15625 42.578125 26.105469 42.601562 26.050781 C 42.625 26.007812 42.644531 25.964844 42.667969 25.917969 C 42.785156 25.554688 42.679688 25.289062 42.527344 24.960938 C 42.496094 24.894531 42.496094 24.894531 42.46875 24.832031 C 42.402344 24.691406 42.339844 24.550781 42.273438 24.410156 C 42.226562 24.308594 42.183594 24.210938 42.136719 24.113281 C 42.042969 23.90625 41.949219 23.703125 41.855469 23.496094 C 41.664062 23.074219 41.472656 22.652344 41.285156 22.226562 C 41.207031 22.054688 41.128906 21.878906 41.050781 21.703125 C 40.976562 21.535156 40.902344 21.371094 40.828125 21.203125 C 40.777344 21.089844 40.726562 20.972656 40.675781 20.859375 C 40.527344 20.53125 40.382812 20.203125 40.238281 19.878906 C 40.148438 19.679688 40.0625 19.484375 39.972656 19.285156 C 39.9375 19.210938 39.902344 19.132812 39.867188 19.058594 C 39.839844 18.996094 39.8125 18.9375 39.785156 18.875 C 39.722656 18.691406 39.695312 18.589844 39.726562 18.394531 C 39.816406 18.25 39.921875 18.121094 40.035156 17.992188 C 40.066406 17.953125 40.097656 17.917969 40.128906 17.878906 C 40.347656 17.617188 40.574219 17.363281 40.804688 17.113281 C 40.902344 17.003906 40.996094 16.898438 41.089844 16.789062 C 41.335938 16.503906 41.597656 16.242188 41.863281 15.976562 C 41.949219 15.890625 42.035156 15.800781 42.121094 15.714844 C 42.414062 15.417969 42.710938 15.132812 43.027344 14.863281 C 43.078125 14.820312 43.128906 14.773438 43.179688 14.726562 C 43.226562 14.6875 43.269531 14.648438 43.316406 14.609375 C 43.363281 14.566406 43.40625 14.527344 43.453125 14.484375 C 43.636719 14.367188 43.75 14.347656 43.96875 14.335938 C 44.128906 14.378906 44.277344 14.445312 44.429688 14.515625 C 44.476562 14.535156 44.519531 14.554688 44.566406 14.574219 C 44.714844 14.636719 44.863281 14.703125 45.011719 14.769531 C 45.117188 14.816406 45.222656 14.859375 45.328125 14.90625 C 45.492188 14.976562 45.65625 15.046875 45.820312 15.121094 C 46.414062 15.378906 47.011719 15.628906 47.609375 15.878906 C 47.816406 15.964844 48.027344 16.054688 48.234375 16.140625 C 48.285156 16.164062 48.335938 16.183594 48.386719 16.207031 C 48.679688 16.328125 48.972656 16.453125 49.265625 16.578125 C 49.441406 16.652344 49.617188 16.726562 49.792969 16.800781 C 49.875 16.835938 49.953125 16.871094 50.035156 16.90625 C 50.144531 16.953125 50.253906 17 50.367188 17.046875 C 50.425781 17.074219 50.488281 17.101562 50.550781 17.128906 C 50.757812 17.195312 50.929688 17.21875 51.140625 17.148438 C 51.171875 17.132812 51.203125 17.117188 51.234375 17.097656 C 51.269531 17.078125 51.308594 17.0625 51.347656 17.042969 C 51.386719 17.023438 51.425781 17 51.464844 16.980469 C 52.378906 16.527344 53.332031 16.183594 54.304688 15.894531 C 54.351562 15.882812 54.398438 15.867188 54.445312 15.855469 C 54.59375 15.8125 54.59375 15.8125 54.777344 15.785156 C 55.0625 15.726562 55.261719 15.679688 55.453125 15.453125 C 55.574219 15.253906 55.667969 15.042969 55.761719 14.832031 C 55.796875 14.753906 55.835938 14.675781 55.871094 14.597656 C 55.949219 14.4375 56.027344 14.273438 56.101562 14.109375 C 56.269531 13.746094 56.449219 13.390625 56.628906 13.035156 C 56.683594 12.925781 56.734375 12.816406 56.789062 12.707031 C 56.972656 12.332031 57.164062 11.957031 57.359375 11.585938 C 57.546875 11.234375 57.726562 10.878906 57.902344 10.519531 C 57.925781 10.472656 57.945312 10.429688 57.96875 10.382812 C 58.0625 10.195312 58.152344 10.011719 58.242188 9.828125 C 58.308594 9.6875 58.378906 9.550781 58.445312 9.414062 C 58.464844 9.371094 58.484375 9.328125 58.507812 9.285156 C 58.8125 8.664062 58.8125 8.664062 59.21875 8.667969 Z M 51.503906 27.042969 C 51.046875 27.582031 50.65625 28.167969 50.300781 28.78125 C 50.28125 28.8125 50.265625 28.84375 50.246094 28.875 C 49.914062 29.449219 49.679688 30.054688 49.464844 30.679688 C 49.449219 30.714844 49.4375 30.753906 49.421875 30.792969 C 48.5625 33.347656 48.855469 36.230469 50.007812 38.640625 C 50.484375 39.601562 51.113281 40.472656 51.851562 41.246094 C 51.898438 41.300781 51.949219 41.351562 51.996094 41.402344 C 53.65625 43.191406 56.21875 44.398438 58.648438 44.5 C 58.902344 44.507812 59.152344 44.507812 59.40625 44.507812 C 59.449219 44.507812 59.496094 44.507812 59.542969 44.507812 C 60.28125 44.507812 60.992188 44.453125 61.710938 44.277344 C 61.757812 44.265625 61.804688 44.253906 61.855469 44.242188 C 64.484375 43.585938 66.851562 41.933594 68.289062 39.605469 C 69.085938 38.273438 69.601562 36.855469 69.824219 35.316406 C 69.832031 35.265625 69.832031 35.265625 69.839844 35.214844 C 70.175781 32.636719 69.460938 29.859375 67.910156 27.785156 C 66.992188 26.589844 65.953125 25.578125 64.644531 24.828125 C 64.609375 24.808594 64.578125 24.789062 64.546875 24.769531 C 63.660156 24.261719 62.703125 23.894531 61.710938 23.667969 C 61.644531 23.652344 61.644531 23.652344 61.574219 23.636719 C 57.847656 22.820312 54.035156 24.234375 51.503906 27.042969 Z M 51.503906 27.042969 "/>
<path style=" stroke:none;fill-rule:nonzero;fill:rgb(100%,100%,100%);fill-opacity:1;" d="M 11.207031 78.121094 C 11.316406 78.175781 11.421875 78.230469 11.527344 78.285156 C 11.558594 78.304688 11.59375 78.320312 11.625 78.339844 C 11.847656 78.4375 12.058594 78.46875 12.300781 78.433594 C 12.46875 78.328125 12.617188 78.195312 12.773438 78.066406 C 13.453125 77.554688 14.363281 77.535156 15.179688 77.589844 C 15.523438 77.648438 15.828125 77.800781 16.144531 77.949219 C 16.292969 78.019531 16.441406 78.078125 16.59375 78.132812 C 16.707031 78.175781 16.816406 78.226562 16.921875 78.277344 C 17.097656 78.359375 17.265625 78.40625 17.457031 78.449219 C 17.902344 78.5625 18.191406 78.882812 18.425781 79.269531 C 18.585938 79.628906 18.597656 79.957031 18.597656 80.347656 C 18.597656 80.402344 18.601562 80.453125 18.601562 80.503906 C 18.601562 81.046875 18.496094 81.519531 18.109375 81.914062 C 17.648438 82.328125 17.042969 82.554688 16.429688 82.617188 C 16.148438 82.59375 15.90625 82.503906 15.652344 82.386719 C 15.601562 82.367188 15.554688 82.347656 15.507812 82.324219 C 15.339844 82.191406 15.339844 82.078125 15.308594 81.863281 C 15.234375 81.40625 15.132812 80.902344 14.761719 80.597656 C 14.570312 80.523438 14.378906 80.507812 14.183594 80.585938 C 13.992188 80.707031 13.84375 80.875 13.742188 81.082031 C 13.671875 81.429688 13.808594 81.804688 13.894531 82.140625 C 13.914062 82.226562 13.933594 82.3125 13.953125 82.398438 C 14.011719 82.640625 14.070312 82.882812 14.132812 83.125 C 14.15625 83.214844 14.15625 83.214844 14.179688 83.308594 C 14.230469 83.519531 14.289062 83.734375 14.347656 83.945312 C 14.660156 85.144531 14.390625 86.457031 13.847656 87.550781 C 13.753906 87.675781 13.683594 87.71875 13.542969 87.785156 C 13.328125 87.894531 13.179688 88.023438 13.015625 88.199219 C 12.929688 88.289062 12.839844 88.367188 12.746094 88.445312 C 12.613281 88.558594 12.5 88.675781 12.390625 88.808594 C 11.753906 89.554688 10.773438 90.246094 9.789062 90.402344 C 9.558594 90.417969 9.324219 90.421875 9.09375 90.425781 C 9.027344 90.425781 8.960938 90.429688 8.894531 90.429688 C 8.753906 90.433594 8.617188 90.433594 8.476562 90.4375 C 8.335938 90.4375 8.195312 90.441406 8.050781 90.445312 C 6.046875 90.488281 6.046875 90.488281 5.652344 90.136719 C 5.449219 90.035156 5.242188 90.085938 5.023438 90.136719 C 4.867188 90.195312 4.710938 90.265625 4.558594 90.335938 C 4.519531 90.355469 4.480469 90.375 4.4375 90.394531 C 4.160156 90.527344 4.160156 90.527344 3.976562 90.769531 C 3.859375 91.332031 4.121094 92.011719 4.398438 92.492188 C 4.449219 92.570312 4.5 92.644531 4.554688 92.71875 C 4.585938 92.769531 4.613281 92.820312 4.644531 92.871094 C 4.921875 93.132812 5.257812 93.210938 5.628906 93.203125 C 5.863281 93.183594 6.09375 93.125 6.324219 93.070312 C 7.019531 92.898438 7.710938 92.796875 8.425781 92.738281 C 8.46875 92.734375 8.511719 92.734375 8.554688 92.730469 C 12.1875 92.4375 12.1875 92.4375 13.457031 93.113281 C 13.695312 93.230469 13.921875 93.28125 14.179688 93.320312 C 15.160156 93.480469 15.847656 94.222656 16.519531 94.910156 C 16.664062 95.0625 16.8125 95.207031 16.976562 95.34375 C 17.972656 96.210938 18.328125 97.460938 18.441406 98.742188 C 18.46875 99.625 18.226562 100.488281 17.675781 101.183594 C 17.449219 101.414062 17.183594 101.574219 16.90625 101.734375 C 16.867188 101.757812 16.824219 101.78125 16.785156 101.804688 C 16.59375 101.914062 16.40625 102.023438 16.21875 102.128906 C 15.964844 102.273438 15.71875 102.421875 15.472656 102.578125 C 14.085938 103.445312 12.84375 103.824219 11.214844 103.863281 C 10.742188 103.878906 10.273438 103.898438 9.804688 103.949219 C 8.371094 104.097656 6.867188 104.070312 5.445312 103.84375 C 5.367188 103.832031 5.367188 103.832031 5.292969 103.820312 C 4.0625 103.628906 2.953125 103.167969 1.988281 102.367188 C 1.945312 102.328125 1.898438 102.292969 1.851562 102.253906 C 1.3125 101.800781 0.984375 101.203125 0.636719 100.597656 C 0.609375 100.546875 0.582031 100.496094 0.550781 100.445312 C -0.0195312 99.429688 -0.140625 98.324219 0.15625 97.199219 C 0.386719 96.46875 0.867188 95.828125 1.292969 95.199219 C 1.351562 95.113281 1.410156 95.023438 1.464844 94.933594 C 1.5 94.882812 1.53125 94.832031 1.566406 94.78125 C 1.726562 94.320312 1.375 93.796875 1.179688 93.382812 C 0.898438 92.773438 0.648438 92.234375 0.660156 91.550781 C 0.660156 91.476562 0.660156 91.476562 0.664062 91.40625 C 0.683594 90.464844 0.980469 89.714844 1.546875 88.972656 C 1.800781 88.628906 1.914062 88.328125 1.914062 87.90625 C 1.914062 87.867188 1.914062 87.828125 1.914062 87.789062 C 1.902344 87.371094 1.734375 87.109375 1.464844 86.800781 C 1.34375 86.632812 1.273438 86.460938 1.203125 86.265625 C 1.183594 86.210938 1.183594 86.210938 1.164062 86.152344 C 0.628906 84.648438 0.460938 82.929688 1.125 81.4375 C 1.382812 80.921875 1.664062 80.453125 2.042969 80.015625 C 2.082031 79.972656 2.121094 79.925781 2.160156 79.878906 C 3.316406 78.566406 4.742188 77.757812 6.4375 77.378906 C 6.496094 77.367188 6.554688 77.355469 6.613281 77.339844 C 8.21875 77.050781 9.789062 77.363281 11.207031 78.121094 Z M 4.871094 80.9375 C 4.09375 81.808594 3.710938 82.777344 3.75 83.945312 C 3.769531 84.355469 3.855469 84.738281 3.976562 85.128906 C 3.996094 85.191406 4.015625 85.253906 4.039062 85.316406 C 4.210938 85.820312 4.472656 86.246094 4.867188 86.605469 C 4.890625 86.628906 4.914062 86.652344 4.941406 86.679688 C 5.84375 87.546875 7.1875 87.585938 8.355469 87.5625 C 9.339844 87.519531 10.207031 87.222656 10.898438 86.492188 C 11.148438 86.191406 11.335938 85.847656 11.515625 85.5 C 11.53125 85.46875 11.546875 85.433594 11.5625 85.402344 C 11.910156 84.71875 11.839844 84.125 11.761719 83.375 C 11.753906 83.3125 11.75 83.25 11.742188 83.183594 C 11.683594 82.613281 11.539062 82.234375 11.222656 81.765625 C 11.179688 81.703125 11.179688 81.703125 11.136719 81.640625 C 10.652344 80.929688 10.121094 80.265625 9.253906 80.039062 C 7.730469 79.800781 5.988281 79.742188 4.871094 80.9375 Z M 8.503906 95.078125 C 8.132812 95.148438 7.761719 95.179688 7.390625 95.210938 C 5.863281 95.339844 4.667969 95.589844 3.613281 96.777344 C 3.265625 97.207031 2.957031 97.714844 2.964844 98.285156 C 3.003906 98.558594 3.128906 98.800781 3.246094 99.046875 C 3.269531 99.097656 3.292969 99.152344 3.320312 99.210938 C 3.570312 99.742188 3.859375 100.136719 4.34375 100.46875 C 4.433594 100.53125 4.523438 100.59375 4.613281 100.660156 C 4.65625 100.691406 4.699219 100.722656 4.746094 100.753906 C 4.84375 100.820312 4.9375 100.890625 5.035156 100.960938 C 5.503906 101.242188 6.097656 101.214844 6.628906 101.230469 C 7.070312 101.246094 7.507812 101.269531 7.945312 101.3125 C 10.429688 101.542969 13.046875 101.558594 15.074219 99.886719 C 15.386719 99.617188 15.65625 99.34375 15.722656 98.921875 C 15.742188 98.558594 15.625 98.269531 15.492188 97.9375 C 15.46875 97.867188 15.445312 97.796875 15.421875 97.730469 C 15.285156 97.335938 15.15625 96.976562 14.867188 96.671875 C 14.816406 96.617188 14.816406 96.617188 14.765625 96.5625 C 13.59375 95.382812 11.546875 94.976562 9.953125 94.972656 C 9.902344 94.972656 9.902344 94.972656 9.84375 94.972656 C 9.390625 94.972656 8.949219 94.988281 8.503906 95.078125 Z M 8.503906 95.078125 "/>
<path style=" stroke:none;fill-rule:nonzero;fill:rgb(100%,100%,100%);fill-opacity:1;" d="M 66.96875 71.257812 C 67.148438 71.257812 67.328125 71.253906 67.507812 71.253906 C 70.035156 71.246094 70.035156 71.246094 70.925781 71.972656 C 71.238281 72.410156 71.15625 73.203125 71.167969 73.71875 C 71.167969 73.757812 71.167969 73.796875 71.167969 73.839844 C 71.191406 74.761719 71.1875 75.6875 71.183594 76.609375 C 71.179688 77.257812 71.191406 77.898438 71.238281 78.539062 C 71.65625 78.394531 72.035156 78.21875 72.421875 78.007812 C 72.769531 77.816406 73.097656 77.65625 73.488281 77.589844 C 73.542969 77.582031 73.59375 77.574219 73.644531 77.5625 C 75.722656 77.277344 78.539062 77.707031 80.261719 78.984375 C 80.398438 79.09375 80.53125 79.210938 80.660156 79.332031 C 80.691406 79.359375 80.722656 79.386719 80.757812 79.414062 C 81.570312 80.167969 82.066406 81.277344 82.574219 82.246094 C 82.621094 82.335938 82.667969 82.425781 82.714844 82.515625 C 83.140625 83.335938 83.296875 84.117188 83.285156 85.039062 C 83.285156 85.136719 83.285156 85.136719 83.285156 85.234375 C 83.285156 85.433594 83.28125 85.636719 83.28125 85.839844 C 83.277344 86.042969 83.277344 86.246094 83.277344 86.449219 C 83.277344 86.574219 83.273438 86.699219 83.273438 86.824219 C 83.273438 87.179688 83.289062 87.527344 83.320312 87.878906 C 83.410156 89.242188 82.492188 90.726562 81.65625 91.71875 C 80.386719 93.175781 78.617188 93.757812 76.734375 93.910156 C 74.921875 94.027344 72.761719 93.628906 71.1875 92.71875 C 71.175781 92.757812 71.167969 92.792969 71.15625 92.832031 C 70.929688 93.703125 70.929688 93.703125 70.714844 93.878906 C 70.136719 94.144531 69.40625 94.335938 68.785156 94.152344 C 68.421875 93.992188 68.207031 93.753906 68.046875 93.394531 C 67.867188 92.890625 67.871094 92.332031 67.910156 91.800781 C 67.949219 91.320312 67.925781 90.859375 67.875 90.378906 C 67.78125 89.445312 67.761719 88.519531 67.769531 87.582031 C 67.769531 87.429688 67.769531 87.277344 67.769531 87.125 C 67.773438 86.355469 67.785156 85.589844 67.8125 84.824219 C 67.832031 84.214844 67.839844 83.609375 67.835938 83 C 67.835938 82.957031 67.835938 82.914062 67.835938 82.871094 C 67.835938 82.660156 67.835938 82.449219 67.835938 82.234375 C 67.828125 80.683594 67.847656 79.140625 67.925781 77.589844 C 67.96875 76.640625 67.863281 75.769531 67.625 74.851562 C 67.613281 74.796875 67.613281 74.796875 67.601562 74.746094 C 67.546875 74.539062 67.546875 74.539062 67.40625 74.382812 C 66.972656 74.207031 66.484375 74.269531 66.023438 74.277344 C 65.429688 74.28125 64.652344 74.285156 64.175781 73.867188 C 63.847656 73.5 63.890625 73.113281 63.910156 72.636719 C 63.945312 72.25 63.976562 71.890625 64.222656 71.582031 C 64.9375 71.085938 66.144531 71.257812 66.96875 71.257812 Z M 73.078125 81.003906 C 72.960938 81.074219 72.839844 81.136719 72.722656 81.203125 C 72.640625 81.25 72.5625 81.292969 72.480469 81.335938 C 72.445312 81.355469 72.40625 81.375 72.367188 81.398438 C 72.128906 81.535156 72.015625 81.660156 71.914062 81.917969 C 71.863281 82.03125 71.800781 82.105469 71.71875 82.195312 C 71.550781 82.414062 71.457031 82.65625 71.355469 82.910156 C 71.339844 82.953125 71.324219 82.992188 71.308594 83.03125 C 71.023438 83.804688 71.015625 84.578125 71.027344 85.394531 C 71.03125 85.441406 71.03125 85.488281 71.03125 85.535156 C 71.054688 86.890625 71.265625 88.109375 71.832031 89.339844 C 71.855469 89.390625 71.875 89.441406 71.898438 89.492188 C 72.210938 90.148438 72.628906 90.546875 73.304688 90.800781 C 74.558594 91.210938 76.15625 91.386719 77.414062 90.925781 C 77.46875 90.90625 77.527344 90.886719 77.582031 90.867188 C 78.464844 90.523438 79.359375 89.953125 79.785156 89.074219 C 80.125 88.257812 80.210938 87.425781 80.292969 86.550781 C 80.300781 86.5 80.304688 86.449219 80.308594 86.394531 C 80.457031 84.851562 80.140625 83.351562 79.140625 82.125 C 78.289062 81.101562 77.167969 80.382812 75.835938 80.191406 C 74.796875 80.105469 73.957031 80.488281 73.078125 81.003906 Z M 73.078125 81.003906 "/>
<path style=" stroke:none;fill-rule:nonzero;fill:rgb(100%,100%,100%);fill-opacity:1;" d="M 107.777344 77.609375 C 108.007812 77.808594 108.21875 78.011719 108.257812 78.332031 C 108.265625 78.621094 108.230469 78.84375 108.035156 79.066406 C 107.832031 79.25 107.617188 79.40625 107.382812 79.546875 C 107.226562 79.664062 107.183594 79.71875 107.144531 79.910156 C 107.132812 80.550781 107.589844 81.125 107.949219 81.621094 C 108.171875 81.925781 108.363281 82.246094 108.546875 82.574219 C 108.683594 82.820312 108.683594 82.820312 108.871094 83.019531 C 109.039062 83.027344 109.140625 83.007812 109.269531 82.898438 C 109.359375 82.808594 109.441406 82.710938 109.523438 82.617188 C 109.695312 82.417969 109.859375 82.230469 110.058594 82.066406 C 110.613281 81.601562 111.109375 80.523438 111.226562 79.804688 C 111.238281 79.628906 111.238281 79.453125 111.226562 79.277344 C 111.1875 79.257812 111.148438 79.234375 111.105469 79.210938 C 111.054688 79.183594 111 79.15625 110.945312 79.125 C 110.894531 79.097656 110.84375 79.070312 110.789062 79.042969 C 110.617188 78.941406 110.558594 78.898438 110.503906 78.703125 C 110.457031 78.289062 110.632812 77.730469 110.863281 77.378906 C 111.320312 77.074219 112.015625 77.246094 112.519531 77.320312 C 113.023438 77.398438 113.4375 77.390625 113.929688 77.273438 C 114.578125 77.136719 115.101562 77.078125 115.71875 77.375 C 116.101562 77.507812 116.554688 77.464844 116.953125 77.40625 C 117.199219 77.371094 117.441406 77.367188 117.6875 77.363281 C 117.738281 77.363281 117.785156 77.359375 117.832031 77.359375 C 118.207031 77.355469 118.488281 77.425781 118.765625 77.691406 C 119.046875 78.101562 119.199219 78.453125 119.132812 78.960938 C 119.011719 79.222656 118.855469 79.351562 118.609375 79.488281 C 118.214844 79.628906 117.820312 79.652344 117.40625 79.664062 C 116.113281 79.664062 116.113281 79.664062 115.019531 80.25 C 114.871094 80.433594 114.75 80.632812 114.628906 80.835938 C 114.363281 81.28125 114.089844 81.527344 113.664062 81.804688 C 113.179688 82.121094 112.921875 82.449219 112.648438 82.953125 C 112.4375 83.328125 112.164062 83.628906 111.84375 83.910156 C 111.4375 84.269531 111.09375 84.605469 110.992188 85.164062 C 110.972656 85.523438 111.085938 85.8125 111.324219 86.082031 C 111.4375 86.195312 111.554688 86.308594 111.671875 86.421875 C 112.417969 87.152344 112.960938 88 113.53125 88.871094 C 114.058594 89.679688 114.058594 89.679688 114.628906 90.453125 C 114.652344 90.480469 114.675781 90.511719 114.699219 90.542969 C 115.1875 91.175781 115.71875 91.570312 116.535156 91.683594 C 117 91.730469 117.464844 91.734375 117.933594 91.734375 C 118.386719 91.746094 118.933594 91.769531 119.296875 92.078125 C 119.519531 92.324219 119.570312 92.550781 119.566406 92.878906 C 119.53125 93.238281 119.4375 93.59375 119.21875 93.882812 C 118.039062 94.742188 116.28125 94.3125 114.949219 94.109375 C 114.105469 93.980469 113.328125 93.941406 112.480469 94.054688 C 112.09375 94.105469 111.691406 94.128906 111.328125 93.949219 C 111.109375 93.773438 111.039062 93.640625 110.996094 93.363281 C 110.957031 93.015625 110.921875 92.648438 111.148438 92.355469 C 111.359375 92.207031 111.601562 92.210938 111.851562 92.1875 C 112.09375 92.160156 112.269531 92.101562 112.484375 91.980469 C 112.519531 91.980469 112.554688 91.980469 112.589844 91.980469 C 112.449219 91.410156 112.09375 90.945312 111.773438 90.460938 C 111.734375 90.394531 111.691406 90.332031 111.648438 90.269531 C 111.628906 90.238281 111.609375 90.207031 111.589844 90.175781 C 111.492188 90.023438 111.414062 89.882812 111.363281 89.710938 C 111.191406 89.183594 110.675781 88.714844 110.300781 88.320312 C 110.171875 88.183594 110.050781 88.042969 109.925781 87.902344 C 109.894531 87.863281 109.859375 87.824219 109.824219 87.78125 C 109.753906 87.707031 109.6875 87.628906 109.625 87.550781 C 109.472656 87.378906 109.394531 87.296875 109.164062 87.261719 C 108.710938 87.457031 108.464844 87.945312 108.222656 88.355469 C 108.164062 88.453125 108.101562 88.550781 108.042969 88.648438 C 107.945312 88.808594 107.851562 88.96875 107.757812 89.128906 C 107.515625 89.535156 107.238281 89.855469 106.910156 90.195312 C 106.3125 90.816406 106.3125 90.816406 106.039062 91.601562 C 106.042969 91.640625 106.042969 91.679688 106.046875 91.71875 C 106.078125 91.726562 106.105469 91.738281 106.136719 91.746094 C 106.675781 91.921875 107.011719 92.125 107.296875 92.628906 C 107.390625 92.945312 107.46875 93.289062 107.351562 93.609375 C 107.195312 93.863281 107.042969 94.003906 106.761719 94.097656 C 106.449219 94.167969 106.132812 94.15625 105.8125 94.15625 C 105.742188 94.15625 105.675781 94.15625 105.605469 94.15625 C 105.457031 94.15625 105.3125 94.15625 105.167969 94.152344 C 104.984375 94.152344 104.804688 94.152344 104.621094 94.152344 C 103.792969 94.152344 102.96875 94.140625 102.144531 94.109375 C 101.792969 94.09375 101.445312 94.089844 101.097656 94.097656 C 100.488281 94.109375 100.066406 94.0625 99.585938 93.652344 C 99.296875 93.375 99.097656 93.097656 99.070312 92.683594 C 99.074219 92.382812 99.179688 92.148438 99.324219 91.890625 C 99.835938 91.414062 100.625 91.503906 101.273438 91.511719 C 102.007812 91.515625 102.515625 91.386719 103.054688 90.878906 C 103.226562 90.710938 103.382812 90.535156 103.535156 90.347656 C 103.558594 90.316406 103.582031 90.289062 103.609375 90.257812 C 103.90625 89.890625 104.203125 89.523438 104.488281 89.144531 C 104.964844 88.519531 105.457031 87.921875 106.019531 87.375 C 106.601562 86.796875 107.304688 85.980469 107.328125 85.121094 C 107.308594 84.113281 106.375 83.332031 105.703125 82.683594 C 105.21875 82.207031 104.820312 81.703125 104.523438 81.085938 C 104.246094 80.546875 104.011719 80.101562 103.429688 79.859375 C 103.070312 79.746094 102.667969 79.800781 102.300781 79.832031 C 101.070312 79.933594 101.070312 79.933594 100.601562 79.542969 C 100.339844 79.253906 100.140625 78.9375 100.132812 78.539062 C 100.195312 78.28125 100.277344 78.160156 100.492188 78.007812 C 101.292969 77.519531 102.324219 77.316406 103.253906 77.332031 C 103.878906 77.335938 104.507812 77.273438 105.128906 77.195312 C 106.03125 77.089844 107.007812 77.050781 107.777344 77.609375 Z M 107.777344 77.609375 "/>
<path style=" stroke:none;fill-rule:nonzero;fill:rgb(100%,100%,100%);fill-opacity:1;" d="M 40.726562 77.105469 C 40.769531 77.105469 40.8125 77.105469 40.859375 77.105469 C 41.589844 77.105469 42.304688 77.140625 43.027344 77.273438 C 43.066406 77.28125 43.109375 77.289062 43.148438 77.296875 C 44.390625 77.539062 45.617188 78.054688 46.355469 79.136719 C 47.078125 80.292969 47.320312 81.78125 47.332031 83.128906 C 47.332031 83.179688 47.332031 83.230469 47.332031 83.28125 C 47.332031 83.449219 47.332031 83.613281 47.335938 83.777344 C 47.335938 83.835938 47.335938 83.894531 47.335938 83.953125 C 47.335938 84.863281 47.289062 85.769531 47.214844 86.675781 C 47.121094 87.757812 47.121094 87.757812 47.085938 88.84375 C 47.085938 88.894531 47.085938 88.949219 47.085938 89.007812 C 47.089844 89.5625 47.1875 90.160156 47.527344 90.609375 C 47.917969 90.953125 48.375 90.941406 48.859375 90.917969 C 49.121094 90.914062 49.292969 90.9375 49.515625 91.085938 C 49.785156 91.492188 49.777344 92.140625 49.726562 92.613281 C 49.597656 93.042969 49.308594 93.402344 48.929688 93.632812 C 48.570312 93.820312 48.25 93.875 47.839844 93.828125 C 47.648438 93.757812 47.46875 93.679688 47.28125 93.589844 C 47.128906 93.519531 46.988281 93.472656 46.828125 93.429688 C 46.558594 93.355469 46.378906 93.214844 46.167969 93.035156 C 45.714844 92.671875 45.210938 92.464844 44.628906 92.527344 C 44.503906 92.546875 44.375 92.566406 44.25 92.585938 C 44.097656 92.609375 43.949219 92.625 43.796875 92.632812 C 43.699219 92.648438 43.699219 92.648438 43.601562 92.667969 C 43.566406 92.738281 43.53125 92.808594 43.496094 92.878906 C 42.40625 93.902344 40.707031 94.183594 39.273438 94.15625 C 38.953125 94.144531 38.671875 94.09375 38.367188 93.984375 C 38.289062 93.957031 38.210938 93.933594 38.128906 93.90625 C 36.605469 93.398438 35.144531 92.71875 34.367188 91.21875 C 33.890625 90.25 33.9375 89.160156 34.253906 88.144531 C 34.648438 86.972656 35.339844 85.90625 36.460938 85.332031 C 38.054688 84.550781 40.214844 84.246094 41.960938 84.523438 C 42.671875 84.628906 43.246094 84.472656 43.839844 84.066406 C 44.195312 83.792969 44.402344 83.445312 44.542969 83.019531 C 44.605469 82.246094 44.578125 81.359375 44.125 80.703125 C 43.503906 79.976562 42.546875 79.894531 41.65625 79.816406 C 40.570312 79.742188 39.238281 79.726562 38.367188 80.492188 C 38.1875 80.707031 38.136719 80.949219 38.15625 81.230469 C 38.234375 81.585938 38.355469 81.933594 38.472656 82.28125 C 38.496094 82.566406 38.511719 82.824219 38.394531 83.085938 C 38.328125 83.160156 38.328125 83.160156 38.261719 83.230469 C 38.222656 83.28125 38.222656 83.28125 38.179688 83.332031 C 37.792969 83.773438 37.179688 84.089844 36.585938 84.128906 C 36.175781 84.132812 35.816406 84.070312 35.503906 83.78125 C 35.335938 83.597656 35.222656 83.402344 35.117188 83.171875 C 35.066406 83.058594 35.066406 83.058594 34.957031 82.925781 C 34.816406 82.683594 34.785156 82.453125 34.753906 82.175781 C 34.75 82.128906 34.746094 82.078125 34.738281 82.023438 C 34.707031 81.464844 34.886719 80.960938 35.070312 80.4375 C 35.085938 80.386719 35.105469 80.335938 35.125 80.28125 C 35.535156 79.117188 35.535156 79.117188 35.960938 78.644531 C 35.988281 78.613281 36.011719 78.582031 36.042969 78.546875 C 36.859375 77.628906 38.160156 77.355469 39.308594 77.167969 C 39.347656 77.164062 39.382812 77.15625 39.417969 77.152344 C 39.851562 77.09375 40.292969 77.105469 40.726562 77.105469 Z M 37.269531 88.210938 C 36.910156 88.667969 36.789062 89.253906 36.847656 89.820312 C 36.953125 90.140625 37.117188 90.390625 37.371094 90.609375 C 37.410156 90.644531 37.449219 90.679688 37.488281 90.714844 C 38.390625 91.363281 39.59375 91.425781 40.660156 91.261719 C 42.128906 90.980469 43.492188 90.074219 44.382812 88.875 C 44.589844 88.5625 44.644531 88.296875 44.597656 87.921875 C 44.390625 87.5 44.046875 87.300781 43.625 87.140625 C 41.804688 86.539062 38.71875 86.800781 37.269531 88.210938 Z M 37.269531 88.210938 "/>
<path style=" stroke:none;fill-rule:nonzero;fill:rgb(100%,100%,100%);fill-opacity:1;" d="M 92.679688 77.058594 C 94.550781 76.972656 96.484375 77.671875 97.917969 78.886719 C 98.246094 79.199219 98.492188 79.574219 98.746094 79.949219 C 98.824219 80.070312 98.902344 80.183594 98.984375 80.300781 C 99.035156 80.375 99.085938 80.449219 99.136719 80.523438 C 99.160156 80.558594 99.183594 80.589844 99.207031 80.625 C 99.382812 80.878906 99.550781 81.132812 99.664062 81.421875 C 99.71875 81.558594 99.789062 81.648438 99.878906 81.761719 C 100.296875 82.359375 100.460938 83.078125 100.597656 83.78125 C 100.609375 83.839844 100.621094 83.894531 100.632812 83.953125 C 100.769531 84.707031 100.679688 85.433594 100.605469 86.191406 C 100.585938 86.386719 100.566406 86.582031 100.550781 86.777344 C 100.542969 86.824219 100.539062 86.871094 100.535156 86.921875 C 100.503906 87.234375 100.484375 87.546875 100.472656 87.859375 C 100.441406 88.472656 100.296875 88.90625 100.027344 89.457031 C 100.003906 89.503906 100.003906 89.503906 99.980469 89.554688 C 99.605469 90.332031 99.171875 91 98.5625 91.613281 C 98.535156 91.636719 98.511719 91.664062 98.488281 91.6875 C 97.277344 92.898438 95.605469 93.621094 93.957031 93.984375 C 93.917969 93.992188 93.878906 94.003906 93.835938 94.011719 C 92.5625 94.277344 91.039062 94.273438 89.769531 93.984375 C 89.699219 93.96875 89.699219 93.96875 89.628906 93.953125 C 88.398438 93.664062 87.277344 93.179688 86.3125 92.351562 C 86.28125 92.324219 86.25 92.300781 86.214844 92.273438 C 84.667969 91.03125 84.371094 88.804688 84.144531 86.957031 C 83.882812 84.550781 84.160156 82.042969 85.703125 80.09375 C 86.378906 79.285156 87.164062 78.707031 88.09375 78.222656 C 88.128906 78.207031 88.164062 78.1875 88.199219 78.167969 C 89.601562 77.445312 91.117188 77.136719 92.679688 77.058594 Z M 88.652344 81.730469 C 87.511719 83.085938 87.085938 84.710938 87.230469 86.472656 C 87.378906 87.980469 87.914062 89.457031 89.074219 90.476562 C 90.0625 91.257812 91.300781 91.539062 92.539062 91.429688 C 93.882812 91.265625 95.070312 90.773438 96.050781 89.820312 C 96.082031 89.792969 96.113281 89.761719 96.148438 89.734375 C 96.992188 88.957031 97.179688 87.855469 97.246094 86.769531 C 97.328125 84.835938 96.960938 82.804688 95.644531 81.328125 C 94.917969 80.542969 93.871094 79.945312 92.792969 79.890625 C 91.167969 79.855469 89.75 80.523438 88.652344 81.730469 Z M 88.652344 81.730469 "/>
<path style=" stroke:none;fill-rule:nonzero;fill:rgb(100%,100%,100%);fill-opacity:1;" d="M 25.546875 77.308594 C 25.675781 77.308594 25.804688 77.308594 25.933594 77.304688 C 26.703125 77.304688 27.449219 77.410156 28.1875 77.628906 C 28.253906 77.648438 28.253906 77.648438 28.324219 77.667969 C 29.371094 77.988281 30.300781 78.515625 31.113281 79.253906 C 31.199219 79.332031 31.285156 79.410156 31.371094 79.484375 C 32.390625 80.398438 32.957031 81.335938 33.167969 82.714844 C 33.179688 82.78125 33.191406 82.851562 33.203125 82.921875 C 33.359375 83.898438 33.488281 84.820312 32.960938 85.707031 C 32.8125 85.886719 32.628906 85.988281 32.398438 86.023438 C 32.136719 86.039062 31.875 86.035156 31.613281 86 C 31.257812 85.953125 30.933594 85.960938 30.582031 86.023438 C 30.15625 86.09375 29.734375 86.09375 29.304688 86.089844 C 29.214844 86.089844 29.128906 86.089844 29.042969 86.089844 C 28.808594 86.089844 28.578125 86.089844 28.347656 86.089844 C 28.203125 86.089844 28.058594 86.085938 27.914062 86.085938 C 26.675781 86.085938 25.433594 86.078125 24.195312 86.054688 C 24.136719 86.054688 24.074219 86.054688 24.011719 86.050781 C 23.007812 86.035156 23.007812 86.035156 22.554688 86.007812 C 22.5 86.003906 22.449219 86.003906 22.394531 86 C 22.300781 85.992188 22.203125 85.988281 22.105469 85.980469 C 21.789062 85.960938 21.40625 85.949219 21.148438 86.164062 C 21.003906 86.488281 20.96875 86.8125 20.972656 87.164062 C 20.972656 87.207031 20.972656 87.246094 20.972656 87.289062 C 20.992188 88.179688 21.289062 88.898438 21.878906 89.558594 C 21.941406 89.628906 21.941406 89.628906 22.007812 89.703125 C 23.035156 90.796875 24.578125 91.207031 26.042969 91.28125 C 27.167969 91.304688 28.671875 90.984375 29.519531 90.191406 C 29.566406 90.148438 29.609375 90.109375 29.65625 90.066406 C 30 89.746094 30.292969 89.433594 30.3125 88.945312 C 30.3125 88.808594 30.308594 88.671875 30.304688 88.535156 C 30.308594 88.113281 30.496094 87.785156 30.78125 87.484375 C 31.152344 87.152344 31.6875 87.039062 32.175781 87.023438 C 32.519531 87.046875 32.722656 87.191406 32.960938 87.441406 C 33.328125 87.953125 33.265625 88.660156 33.175781 89.25 C 32.984375 90.175781 32.589844 90.90625 31.929688 91.558594 C 31.863281 91.625 31.863281 91.625 31.796875 91.691406 C 30.691406 92.742188 29.332031 93.617188 27.847656 93.984375 C 27.8125 93.992188 27.777344 94 27.742188 94.011719 C 25.675781 94.503906 23.375 93.964844 21.578125 92.882812 C 21.019531 92.523438 20.523438 92.128906 20.046875 91.664062 C 20.003906 91.625 19.957031 91.582031 19.910156 91.539062 C 19.1875 90.847656 18.667969 89.960938 18.347656 89.011719 C 18.335938 88.976562 18.324219 88.941406 18.3125 88.902344 C 18.09375 88.203125 18.089844 87.503906 18.09375 86.78125 C 18.09375 86.726562 18.09375 86.675781 18.09375 86.621094 C 18.097656 85.8125 18.125 85.027344 18.269531 84.234375 C 18.277344 84.183594 18.285156 84.132812 18.292969 84.082031 C 18.539062 82.710938 19.015625 81.417969 19.890625 80.332031 C 19.914062 80.296875 19.941406 80.265625 19.96875 80.230469 C 20.070312 80.09375 20.148438 80.015625 20.300781 79.941406 C 20.734375 79.722656 21.058594 79.3125 21.386719 78.957031 C 22.53125 77.722656 23.878906 77.292969 25.546875 77.308594 Z M 22.355469 81.304688 C 21.96875 81.773438 21.574219 82.390625 21.566406 83.019531 C 21.652344 83.269531 21.757812 83.414062 21.984375 83.546875 C 22.433594 83.703125 22.863281 83.726562 23.335938 83.71875 C 23.394531 83.71875 23.457031 83.71875 23.519531 83.71875 C 23.835938 83.714844 24.148438 83.703125 24.460938 83.675781 C 24.851562 83.648438 25.238281 83.65625 25.628906 83.671875 C 25.832031 83.679688 26.03125 83.6875 26.234375 83.691406 C 26.273438 83.691406 26.3125 83.695312 26.351562 83.695312 C 28.5 83.84375 28.5 83.84375 30.464844 83.179688 C 30.535156 83.117188 30.535156 83.117188 30.527344 82.960938 C 30.472656 82.078125 29.546875 81.179688 28.933594 80.621094 C 27.160156 79.121094 23.886719 79.703125 22.355469 81.304688 Z M 22.355469 81.304688 "/>
<path style=" stroke:none;fill-rule:nonzero;fill:rgb(100%,100%,100%);fill-opacity:1;" d="M 61.007812 77.214844 C 62.53125 77.179688 64.003906 77.636719 65.121094 78.691406 C 66.074219 79.609375 66.878906 80.707031 66.917969 82.085938 C 66.882812 83.082031 66.382812 84 65.667969 84.679688 C 65.195312 85.074219 64.671875 85.253906 64.0625 85.25 C 64.015625 85.25 63.972656 85.25 63.929688 85.25 C 63.273438 85.238281 62.683594 85.097656 62.191406 84.636719 C 61.726562 84.136719 61.683594 83.515625 61.695312 82.859375 C 61.71875 82.371094 61.875 82.007812 62.207031 81.652344 C 62.421875 81.480469 62.660156 81.375 62.914062 81.265625 C 63.089844 81.167969 63.148438 81.097656 63.230469 80.914062 C 63.277344 80.652344 63.195312 80.484375 63.050781 80.269531 C 62.785156 79.964844 62.339844 79.882812 61.953125 79.847656 C 60.351562 79.773438 58.761719 80.367188 57.570312 81.453125 C 56.695312 82.285156 56.332031 83.179688 56.207031 84.363281 C 56.199219 84.441406 56.1875 84.515625 56.179688 84.589844 C 56.109375 85.226562 56.050781 85.855469 56.046875 86.492188 C 56.046875 86.550781 56.046875 86.605469 56.046875 86.664062 C 56.046875 86.785156 56.046875 86.90625 56.046875 87.027344 C 56.046875 87.210938 56.042969 87.390625 56.042969 87.570312 C 56.039062 88.699219 56.050781 90.066406 56.816406 90.972656 C 57.175781 91.277344 57.476562 91.257812 57.921875 91.234375 C 58.242188 91.222656 58.414062 91.265625 58.675781 91.453125 C 58.976562 91.746094 59.046875 92.121094 59.058594 92.523438 C 59.050781 92.894531 58.976562 93.234375 58.804688 93.558594 C 58.175781 94.09375 57.058594 94.121094 56.269531 94.089844 C 56.132812 94.074219 55.996094 94.054688 55.859375 94.03125 C 55.292969 93.941406 54.746094 93.925781 54.175781 93.949219 C 54.140625 93.949219 54.105469 93.953125 54.070312 93.953125 C 53.898438 93.960938 53.730469 93.96875 53.5625 93.976562 C 51.546875 94.070312 51.546875 94.070312 50.851562 93.542969 C 50.617188 93.296875 50.542969 93.078125 50.546875 92.734375 C 50.566406 91.941406 50.566406 91.941406 50.773438 91.59375 C 51.269531 91.15625 51.839844 91.066406 52.476562 91.078125 C 52.523438 91.078125 52.574219 91.078125 52.621094 91.082031 C 52.738281 91.082031 52.855469 91.082031 52.972656 91.085938 C 52.996094 91.003906 53.019531 90.925781 53.046875 90.84375 C 53.058594 90.800781 53.074219 90.757812 53.089844 90.710938 C 53.1875 90.332031 53.1875 89.964844 53.1875 89.574219 C 53.1875 89.488281 53.1875 89.488281 53.1875 89.394531 C 53.1875 89.269531 53.1875 89.144531 53.1875 89.019531 C 53.1875 88.832031 53.1875 88.644531 53.1875 88.453125 C 53.1875 87.847656 53.179688 87.246094 53.140625 86.644531 C 53.125 86.386719 53.121094 86.132812 53.121094 85.878906 C 53.121094 85.828125 53.121094 85.777344 53.121094 85.722656 C 53.125 85.328125 53.136719 84.929688 53.152344 84.53125 C 53.175781 83.921875 53.1875 83.308594 53.191406 82.695312 C 53.191406 82.601562 53.195312 82.503906 53.195312 82.40625 C 53.203125 81.667969 53.207031 80.855469 52.761719 80.226562 C 52.464844 79.929688 52.148438 79.792969 51.722656 79.792969 C 51.671875 79.792969 51.671875 79.792969 51.617188 79.796875 C 51.582031 79.796875 51.546875 79.796875 51.511719 79.796875 C 51.296875 79.796875 51.09375 79.816406 50.878906 79.847656 C 50.6875 79.867188 50.492188 79.871094 50.296875 79.871094 C 50.257812 79.871094 50.21875 79.875 50.175781 79.875 C 49.828125 79.878906 49.582031 79.808594 49.320312 79.566406 C 49.070312 79.230469 48.996094 78.789062 49.046875 78.382812 C 49.105469 78.0625 49.207031 77.851562 49.464844 77.65625 C 49.894531 77.386719 50.363281 77.371094 50.855469 77.375 C 50.917969 77.375 50.917969 77.375 50.980469 77.375 C 51.230469 77.375 51.472656 77.386719 51.71875 77.40625 C 52.066406 77.433594 52.410156 77.433594 52.757812 77.429688 C 52.8125 77.429688 52.871094 77.429688 52.925781 77.429688 C 53.160156 77.425781 53.394531 77.425781 53.628906 77.421875 C 53.800781 77.417969 53.976562 77.414062 54.148438 77.414062 C 54.199219 77.414062 54.25 77.410156 54.304688 77.410156 C 54.691406 77.410156 55.117188 77.460938 55.417969 77.722656 C 55.613281 77.957031 55.648438 78.105469 55.648438 78.40625 C 55.652344 78.464844 55.652344 78.527344 55.652344 78.589844 C 55.640625 78.75 55.640625 78.75 55.535156 78.910156 C 55.527344 79.046875 55.527344 79.046875 55.535156 79.171875 C 56.207031 79.183594 56.753906 78.78125 57.296875 78.429688 C 58.464844 77.6875 59.625 77.285156 61.007812 77.214844 Z M 61.007812 77.214844 "/>
<path style=" stroke:none;fill-rule:nonzero;fill:rgb(100%,100%,100%);fill-opacity:1;" d="M 68.933594 97.78125 C 69.28125 97.78125 69.625 97.78125 69.980469 97.78125 C 70.171875 98.347656 70.363281 98.917969 70.554688 99.484375 C 70.644531 99.75 70.734375 100.015625 70.820312 100.277344 C 70.90625 100.53125 70.992188 100.789062 71.078125 101.042969 C 71.109375 101.140625 71.144531 101.238281 71.175781 101.332031 C 71.222656 101.46875 71.269531 101.605469 71.3125 101.742188 C 71.328125 101.78125 71.339844 101.824219 71.355469 101.863281 C 71.449219 102.144531 71.449219 102.144531 71.449219 102.261719 C 71.480469 102.261719 71.515625 102.261719 71.550781 102.261719 C 71.574219 102.160156 71.574219 102.160156 71.59375 102.058594 C 71.65625 101.773438 71.75 101.5 71.84375 101.222656 C 71.863281 101.167969 71.882812 101.113281 71.902344 101.058594 C 71.960938 100.890625 72.019531 100.71875 72.078125 100.546875 C 72.121094 100.429688 72.160156 100.3125 72.199219 100.195312 C 72.964844 97.992188 72.964844 97.992188 73.070312 97.78125 C 73.382812 97.78125 73.691406 97.78125 74.011719 97.78125 C 74.054688 97.910156 74.054688 97.910156 74.101562 98.039062 C 74.199219 98.328125 74.300781 98.617188 74.398438 98.90625 C 74.457031 99.082031 74.515625 99.257812 74.578125 99.433594 C 74.824219 100.152344 75.070312 100.875 75.328125 101.59375 C 75.347656 101.648438 75.367188 101.707031 75.386719 101.765625 C 75.40625 101.816406 75.421875 101.867188 75.441406 101.917969 C 75.464844 101.984375 75.464844 101.984375 75.488281 102.054688 C 75.523438 102.152344 75.523438 102.152344 75.582031 102.207031 C 75.597656 102.167969 75.609375 102.125 75.625 102.085938 C 75.753906 101.695312 75.882812 101.308594 76.015625 100.917969 C 76.082031 100.71875 76.148438 100.519531 76.214844 100.320312 C 76.5 99.46875 76.785156 98.621094 77.101562 97.78125 C 77.429688 97.78125 77.757812 97.78125 78.09375 97.78125 C 78.050781 98.042969 77.988281 98.273438 77.902344 98.523438 C 77.886719 98.566406 77.871094 98.605469 77.855469 98.652344 C 77.808594 98.792969 77.757812 98.929688 77.710938 99.070312 C 77.675781 99.171875 77.640625 99.269531 77.605469 99.367188 C 77.53125 99.582031 77.457031 99.796875 77.378906 100.011719 C 77.273438 100.320312 77.164062 100.632812 77.058594 100.941406 C 76.964844 101.203125 76.875 101.464844 76.785156 101.726562 C 76.742188 101.855469 76.695312 101.980469 76.652344 102.109375 C 76.589844 102.289062 76.527344 102.46875 76.464844 102.652344 C 76.445312 102.707031 76.425781 102.757812 76.40625 102.816406 C 76.390625 102.863281 76.371094 102.914062 76.355469 102.964844 C 76.339844 103.007812 76.324219 103.054688 76.308594 103.097656 C 76.261719 103.210938 76.261719 103.210938 76.160156 103.367188 C 76.035156 103.386719 76.035156 103.386719 75.886719 103.382812 C 75.832031 103.382812 75.777344 103.382812 75.722656 103.382812 C 75.636719 103.378906 75.636719 103.378906 75.550781 103.378906 C 75.492188 103.375 75.4375 103.375 75.378906 103.375 C 75.238281 103.375 75.097656 103.371094 74.953125 103.367188 C 74.789062 102.964844 74.644531 102.558594 74.5 102.144531 C 74.46875 102.046875 74.433594 101.949219 74.398438 101.847656 C 74.351562 101.710938 74.300781 101.574219 74.253906 101.4375 C 74.171875 101.195312 74.085938 100.953125 74.003906 100.710938 C 73.960938 100.585938 73.914062 100.457031 73.871094 100.328125 C 73.765625 100.023438 73.65625 99.71875 73.542969 99.414062 C 73.355469 99.847656 73.191406 100.28125 73.042969 100.726562 C 73.019531 100.789062 73 100.851562 72.976562 100.917969 C 72.921875 101.082031 72.867188 101.246094 72.808594 101.410156 C 72.730469 101.640625 72.652344 101.871094 72.574219 102.105469 C 72.53125 102.226562 72.488281 102.347656 72.449219 102.472656 C 72.429688 102.527344 72.410156 102.585938 72.390625 102.640625 C 72.367188 102.714844 72.367188 102.714844 72.339844 102.789062 C 72.273438 102.984375 72.199219 103.175781 72.128906 103.367188 C 71.714844 103.367188 71.300781 103.367188 70.871094 103.367188 C 70.546875 102.46875 70.234375 101.566406 69.921875 100.664062 C 69.886719 100.566406 69.851562 100.46875 69.820312 100.371094 C 69.800781 100.320312 69.785156 100.273438 69.769531 100.222656 C 69.652344 99.882812 69.53125 99.542969 69.414062 99.207031 C 69.398438 99.160156 69.382812 99.113281 69.367188 99.066406 C 69.289062 98.851562 69.214844 98.632812 69.136719 98.414062 C 69.109375 98.339844 69.082031 98.261719 69.058594 98.183594 C 69.042969 98.148438 69.03125 98.113281 69.019531 98.078125 C 68.933594 97.839844 68.933594 97.839844 68.933594 97.78125 Z M 68.933594 97.78125 "/>
<path style=" stroke:none;fill-rule:nonzero;fill:rgb(100%,100%,100%);fill-opacity:1;" d="M 88.566406 97.714844 C 88.632812 97.714844 88.699219 97.710938 88.765625 97.710938 C 89.4375 97.707031 90.097656 97.804688 90.597656 98.296875 C 91 98.792969 90.996094 99.378906 90.996094 99.992188 C 90.996094 100.070312 90.996094 100.152344 90.996094 100.234375 C 91 100.445312 91 100.65625 91 100.867188 C 91.003906 101.203125 91.003906 101.542969 91.007812 101.878906 C 91.007812 101.996094 91.007812 102.113281 91.007812 102.230469 C 91.007812 102.304688 91.007812 102.378906 91.011719 102.449219 C 91.011719 102.542969 91.011719 102.542969 91.011719 102.640625 C 91.027344 102.886719 91.082031 103.125 91.128906 103.367188 C 90.75 103.367188 90.367188 103.367188 89.976562 103.367188 C 89.960938 103.140625 89.941406 102.914062 89.925781 102.683594 C 89.878906 102.714844 89.832031 102.746094 89.785156 102.777344 C 89.410156 103.03125 89.054688 103.242188 88.617188 103.367188 C 88.585938 103.375 88.554688 103.386719 88.519531 103.394531 C 87.839844 103.542969 87.007812 103.488281 86.402344 103.140625 C 86.097656 102.933594 85.90625 102.660156 85.789062 102.3125 C 85.75 101.824219 85.75 101.398438 86.050781 100.996094 C 86.921875 99.996094 88.679688 99.757812 89.925781 99.625 C 89.894531 99.171875 89.894531 99.171875 89.691406 98.777344 C 89.605469 98.722656 89.605469 98.722656 89.507812 98.675781 C 89.46875 98.65625 89.429688 98.636719 89.390625 98.613281 C 88.914062 98.402344 88.355469 98.378906 87.851562 98.515625 C 87.398438 98.699219 87.179688 98.898438 86.890625 99.308594 C 86.59375 99.1875 86.300781 99.066406 86 98.941406 C 86.1875 98.464844 86.550781 98.214844 86.992188 97.992188 C 87.53125 97.761719 87.988281 97.714844 88.566406 97.714844 Z M 87.074219 101.265625 C 86.847656 101.519531 86.765625 101.695312 86.769531 102.03125 C 86.792969 102.230469 86.859375 102.328125 86.992188 102.472656 C 87.289062 102.691406 87.625 102.753906 87.988281 102.734375 C 88.539062 102.644531 89.039062 102.433594 89.519531 102.152344 C 89.609375 102.101562 89.609375 102.101562 89.789062 102.03125 C 89.992188 101.824219 89.957031 101.628906 89.953125 101.347656 C 89.949219 101.28125 89.945312 101.210938 89.945312 101.140625 C 89.941406 101.070312 89.941406 101 89.941406 100.929688 C 89.9375 100.757812 89.929688 100.585938 89.925781 100.414062 C 89.078125 100.414062 87.714844 100.703125 87.074219 101.265625 Z M 87.074219 101.265625 "/>
<path style=" stroke:none;fill-rule:nonzero;fill:rgb(100%,100%,100%);fill-opacity:1;" d="M 113.160156 97.707031 C 113.21875 97.707031 113.273438 97.707031 113.328125 97.710938 C 114.089844 97.722656 114.691406 97.914062 115.25 98.445312 C 115.847656 99.121094 115.886719 99.90625 115.886719 100.785156 C 114.417969 100.785156 112.949219 100.785156 111.4375 100.785156 C 111.542969 101.433594 111.542969 101.433594 111.804688 101.996094 C 111.839844 102.050781 111.875 102.105469 111.910156 102.160156 C 112.144531 102.433594 112.554688 102.609375 112.902344 102.683594 C 113.707031 102.730469 114.308594 102.640625 114.945312 102.101562 C 115.058594 101.984375 115.15625 101.863281 115.257812 101.734375 C 115.5 101.855469 115.742188 101.976562 115.992188 102.101562 C 115.878906 102.554688 115.484375 102.847656 115.101562 103.078125 C 114.515625 103.371094 113.933594 103.429688 113.292969 103.433594 C 113.199219 103.433594 113.199219 103.433594 113.101562 103.4375 C 112.347656 103.441406 111.671875 103.273438 111.105469 102.753906 C 110.464844 102.058594 110.402344 101.152344 110.425781 100.25 C 110.453125 99.578125 110.648438 98.984375 111.097656 98.476562 C 111.140625 98.4375 111.183594 98.398438 111.226562 98.359375 C 111.277344 98.316406 111.324219 98.269531 111.375 98.226562 C 111.886719 97.808594 112.519531 97.699219 113.160156 97.707031 Z M 111.804688 98.992188 C 111.59375 99.308594 111.488281 99.667969 111.488281 100.046875 C 112.59375 100.046875 113.699219 100.046875 114.839844 100.046875 C 114.746094 99.476562 114.667969 99.066406 114.21875 98.707031 C 113.449219 98.195312 112.421875 98.285156 111.804688 98.992188 Z M 111.804688 98.992188 "/>
<path style=" stroke:none;fill-rule:nonzero;fill:rgb(100%,100%,100%);fill-opacity:1;" d="M 37.074219 97.710938 C 37.160156 97.710938 37.160156 97.710938 37.25 97.710938 C 38.019531 97.722656 38.699219 97.890625 39.28125 98.429688 C 39.832031 99.03125 40.011719 99.761719 40.007812 100.5625 C 40.007812 100.613281 40.003906 100.664062 40.003906 100.71875 C 39.992188 101.46875 39.808594 102.140625 39.292969 102.707031 C 38.660156 103.292969 37.925781 103.4375 37.09375 103.4375 C 37.035156 103.4375 36.976562 103.4375 36.914062 103.4375 C 36.121094 103.441406 35.441406 103.234375 34.867188 102.667969 C 34.289062 102.058594 34.109375 101.277344 34.121094 100.453125 C 34.160156 99.726562 34.324219 99.121094 34.808594 98.570312 C 34.835938 98.539062 34.859375 98.503906 34.886719 98.472656 C 35.445312 97.835938 36.277344 97.707031 37.074219 97.710938 Z M 36.0625 98.625 C 36.015625 98.648438 36.015625 98.648438 35.960938 98.675781 C 35.542969 98.933594 35.34375 99.429688 35.226562 99.886719 C 35.046875 100.625 35.175781 101.425781 35.550781 102.078125 C 35.769531 102.378906 36.078125 102.609375 36.4375 102.710938 C 37.050781 102.808594 37.695312 102.804688 38.222656 102.441406 C 38.636719 102.105469 38.867188 101.683594 38.941406 101.152344 C 39.003906 100.363281 39.011719 99.570312 38.472656 98.9375 C 38.019531 98.496094 37.550781 98.390625 36.941406 98.394531 C 36.613281 98.398438 36.351562 98.457031 36.0625 98.625 Z M 36.0625 98.625 "/>
<path style=" stroke:none;fill-rule:nonzero;fill:rgb(100%,100%,100%);fill-opacity:1;" d="M 25.910156 98.308594 C 26.023438 98.390625 26.121094 98.472656 26.222656 98.570312 C 26.148438 98.757812 26.046875 98.859375 25.890625 98.984375 C 25.851562 99.015625 25.808594 99.046875 25.769531 99.082031 C 25.648438 99.152344 25.648438 99.152344 25.542969 99.144531 C 25.414062 99.085938 25.316406 99.011719 25.203125 98.925781 C 24.625 98.515625 24.09375 98.378906 23.398438 98.464844 C 23.117188 98.523438 22.894531 98.605469 22.734375 98.851562 C 22.652344 99.074219 22.644531 99.1875 22.714844 99.414062 C 23.078125 99.917969 23.875 99.988281 24.441406 100.121094 C 25.949219 100.476562 25.949219 100.476562 26.351562 101.058594 C 26.550781 101.421875 26.550781 101.945312 26.453125 102.347656 C 26.21875 102.859375 25.671875 103.109375 25.175781 103.316406 C 24.207031 103.625 22.988281 103.492188 22.09375 103.039062 C 21.796875 102.867188 21.546875 102.660156 21.304688 102.417969 C 21.449219 102.261719 21.59375 102.144531 21.773438 102.03125 C 21.820312 102.003906 21.863281 101.976562 21.910156 101.949219 C 22.035156 101.890625 22.035156 101.890625 22.144531 101.898438 C 22.277344 101.957031 22.371094 102.042969 22.480469 102.140625 C 23.105469 102.664062 23.816406 102.75 24.601562 102.683594 C 24.78125 102.636719 24.917969 102.578125 25.070312 102.472656 C 25.121094 102.4375 25.171875 102.402344 25.226562 102.371094 C 25.402344 102.191406 25.4375 102.066406 25.441406 101.816406 C 25.363281 101.554688 25.246094 101.457031 25.019531 101.3125 C 24.582031 101.09375 24.132812 100.972656 23.660156 100.863281 C 22.421875 100.578125 22.421875 100.578125 22.007812 100.183594 C 21.964844 100.144531 21.925781 100.105469 21.882812 100.066406 C 21.601562 99.738281 21.589844 99.445312 21.601562 99.027344 C 21.640625 98.59375 21.839844 98.359375 22.167969 98.082031 C 23.214844 97.34375 24.902344 97.65625 25.910156 98.308594 Z M 25.910156 98.308594 "/>
<path style=" stroke:none;fill-rule:nonzero;fill:rgb(100%,100%,100%);fill-opacity:1;" d="M 58.992188 95.988281 C 59.351562 95.988281 59.714844 95.988281 60.089844 95.988281 C 60.089844 96.578125 60.089844 97.171875 60.089844 97.78125 C 60.609375 97.78125 61.125 97.78125 61.660156 97.78125 C 61.660156 98.023438 61.660156 98.265625 61.660156 98.519531 C 61.140625 98.519531 60.625 98.519531 60.089844 98.519531 C 60.09375 99.015625 60.097656 99.515625 60.105469 100.011719 C 60.105469 100.242188 60.109375 100.476562 60.113281 100.707031 C 60.113281 100.929688 60.117188 101.152344 60.117188 101.375 C 60.121094 101.460938 60.121094 101.546875 60.121094 101.632812 C 60.121094 101.75 60.125 101.871094 60.125 101.988281 C 60.125 102.058594 60.125 102.125 60.128906 102.195312 C 60.140625 102.355469 60.152344 102.449219 60.246094 102.578125 C 60.699219 102.746094 61.1875 102.667969 61.660156 102.628906 C 61.660156 102.855469 61.660156 103.082031 61.660156 103.316406 C 61.3125 103.433594 61.039062 103.4375 60.675781 103.4375 C 60.617188 103.4375 60.554688 103.4375 60.496094 103.4375 C 60.074219 103.441406 59.640625 103.414062 59.3125 103.117188 C 59.28125 103.09375 59.253906 103.070312 59.226562 103.046875 C 59.011719 102.773438 58.96875 102.5 58.972656 102.164062 C 58.972656 102.101562 58.972656 102.101562 58.972656 102.042969 C 58.972656 101.914062 58.972656 101.78125 58.976562 101.652344 C 58.976562 101.5625 58.976562 101.472656 58.976562 101.382812 C 58.976562 101.144531 58.976562 100.90625 58.980469 100.671875 C 58.980469 100.425781 58.980469 100.183594 58.984375 99.941406 C 58.984375 99.46875 58.988281 98.992188 58.992188 98.519531 C 58.660156 98.519531 58.332031 98.519531 57.996094 98.519531 C 57.996094 98.273438 57.996094 98.03125 57.996094 97.78125 C 58.324219 97.78125 58.652344 97.78125 58.992188 97.78125 C 58.992188 97.1875 58.992188 96.597656 58.992188 95.988281 Z M 58.992188 95.988281 "/>
<path style=" stroke:none;fill-rule:nonzero;fill:rgb(100%,100%,100%);fill-opacity:1;" d="M 50.980469 95.671875 C 50.980469 95.898438 50.980469 96.125 50.980469 96.355469 C 50.910156 96.355469 50.839844 96.351562 50.765625 96.351562 C 50.667969 96.351562 50.574219 96.347656 50.476562 96.347656 C 50.429688 96.34375 50.382812 96.34375 50.335938 96.34375 C 50.058594 96.339844 49.855469 96.347656 49.621094 96.515625 C 49.523438 96.671875 49.5 96.796875 49.496094 96.976562 C 49.492188 97.019531 49.492188 97.0625 49.488281 97.105469 C 49.488281 97.160156 49.484375 97.210938 49.484375 97.265625 C 49.472656 97.519531 49.472656 97.519531 49.464844 97.78125 C 49.949219 97.78125 50.429688 97.78125 50.929688 97.78125 C 50.929688 98.023438 50.929688 98.265625 50.929688 98.519531 C 50.445312 98.519531 49.960938 98.519531 49.464844 98.519531 C 49.464844 100.117188 49.464844 101.71875 49.464844 103.367188 C 49.136719 103.367188 48.808594 103.367188 48.46875 103.367188 C 48.46875 101.765625 48.46875 100.167969 48.46875 98.519531 C 48.070312 98.519531 47.675781 98.519531 47.265625 98.519531 C 47.265625 98.273438 47.265625 98.03125 47.265625 97.78125 C 47.664062 97.78125 48.058594 97.78125 48.46875 97.78125 C 48.464844 97.398438 48.464844 97.398438 48.457031 97.019531 C 48.453125 96.628906 48.492188 96.324219 48.734375 96.003906 C 49.414062 95.464844 50.171875 95.492188 50.980469 95.671875 Z M 50.980469 95.671875 "/>
<path style=" stroke:none;fill-rule:nonzero;fill:rgb(100%,100%,100%);fill-opacity:1;" d="M 103.117188 97.726562 C 103.140625 98.117188 103.140625 98.117188 103.167969 98.519531 C 103.039062 98.539062 102.914062 98.558594 102.78125 98.582031 C 102.238281 98.679688 101.789062 98.859375 101.441406 99.308594 C 101.039062 99.894531 101.039062 99.894531 100.898438 100.574219 C 100.898438 100.636719 100.898438 100.699219 100.898438 100.761719 C 100.894531 100.863281 100.894531 100.863281 100.894531 100.964844 C 100.894531 101.03125 100.894531 101.101562 100.890625 101.171875 C 100.890625 101.351562 100.886719 101.535156 100.886719 101.71875 C 100.882812 101.902344 100.878906 102.089844 100.878906 102.273438 C 100.871094 102.640625 100.867188 103.003906 100.863281 103.367188 C 100.535156 103.367188 100.207031 103.367188 99.871094 103.367188 C 99.871094 101.523438 99.871094 99.679688 99.871094 97.78125 C 100.199219 97.78125 100.527344 97.78125 100.863281 97.78125 C 100.882812 98.128906 100.898438 98.476562 100.917969 98.835938 C 100.976562 98.753906 101.035156 98.675781 101.097656 98.59375 C 101.464844 98.128906 101.867188 97.820312 102.460938 97.742188 C 102.679688 97.726562 102.894531 97.722656 103.117188 97.726562 Z M 103.117188 97.726562 "/>
<path style=" stroke:none;fill-rule:nonzero;fill:rgb(100%,100%,100%);fill-opacity:1;" d="M 123.1875 75.453125 C 123.613281 75.753906 123.886719 76.1875 124 76.695312 C 124.0625 77.269531 124.035156 77.835938 123.6875 78.3125 C 123.292969 78.78125 122.847656 79.070312 122.234375 79.136719 C 121.6875 79.152344 121.230469 78.996094 120.808594 78.644531 C 120.40625 78.261719 120.179688 77.84375 120.164062 77.285156 C 120.15625 76.628906 120.269531 76.1875 120.734375 75.703125 C 121.429688 75.0625 122.371094 74.980469 123.1875 75.453125 Z M 120.859375 76.167969 C 120.582031 76.625 120.511719 77.109375 120.632812 77.636719 C 120.789062 78.070312 121.082031 78.425781 121.488281 78.644531 C 121.878906 78.796875 122.257812 78.808594 122.652344 78.664062 C 123.121094 78.449219 123.394531 78.109375 123.574219 77.628906 C 123.710938 77.117188 123.605469 76.664062 123.359375 76.203125 C 123.136719 75.863281 122.820312 75.644531 122.429688 75.535156 C 121.777344 75.449219 121.265625 75.644531 120.859375 76.167969 Z M 120.859375 76.167969 "/>
<path style=" stroke:none;fill-rule:nonzero;fill:rgb(100%,100%,100%);fill-opacity:1;" d="M 122.691406 76.167969 C 122.835938 76.285156 122.875 76.371094 122.894531 76.558594 C 122.914062 76.773438 122.882812 76.890625 122.742188 77.0625 C 122.710938 77.117188 122.675781 77.167969 122.640625 77.222656 C 122.664062 77.25 122.6875 77.277344 122.710938 77.304688 C 122.816406 77.460938 122.84375 77.597656 122.882812 77.777344 C 122.898438 77.839844 122.910156 77.898438 122.925781 77.960938 C 122.953125 78.117188 122.953125 78.117188 122.953125 78.277344 C 122.816406 78.277344 122.675781 78.277344 122.535156 78.277344 C 122.441406 78.070312 122.394531 77.867188 122.355469 77.644531 C 122.332031 77.527344 122.332031 77.527344 122.21875 77.433594 C 122.105469 77.410156 122.105469 77.410156 121.976562 77.402344 C 121.902344 77.394531 121.828125 77.386719 121.75 77.378906 C 121.75 77.675781 121.75 77.972656 121.75 78.277344 C 121.628906 78.277344 121.507812 78.277344 121.382812 78.277344 C 121.382812 77.546875 121.382812 76.816406 121.382812 76.0625 C 121.84375 75.96875 122.261719 75.957031 122.691406 76.167969 Z M 121.75 76.378906 C 121.746094 76.496094 121.746094 76.609375 121.746094 76.726562 C 121.746094 76.789062 121.746094 76.851562 121.746094 76.917969 C 121.746094 76.964844 121.75 77.015625 121.75 77.0625 C 122.097656 77.054688 122.097656 77.054688 122.414062 76.921875 C 122.496094 76.800781 122.496094 76.800781 122.488281 76.640625 C 122.441406 76.472656 122.441406 76.472656 122.289062 76.386719 C 122.007812 76.285156 122.007812 76.285156 121.75 76.378906 Z M 121.75 76.378906 "/>
</g>
</svg>
