<?xml version="1.0" encoding="UTF-8"?>
<svg id="Colors_CTA" data-name="Colors CTA" xmlns="http://www.w3.org/2000/svg" width="48" height="48" xmlns:xlink="http://www.w3.org/1999/xlink" viewBox="0 0 48 48">
  <defs>
    <style>
      .cls-1, .cls-2 {
        fill: #fff;
      }

      .cls-2, .cls-3 {
        fill-rule: evenodd;
      }

      .cls-4 {
        fill: none;
      }

      .cls-5, .cls-3 {
        fill: #3d3935;
      }

      .cls-6 {
        clip-path: url(#clippath);
      }
    </style>
    <clipPath id="clippath">
      <rect class="cls-4" x="5.47" y="2.5" width="37.07" height="43"/>
    </clipPath>
  </defs>
  <g id="Epic_White_SVG_48x48" data-name="Epic White SVG 48x48">
    <g class="cls-6">
      <g>
        <path class="cls-2" d="M39.16,2.5H8.83c-2.46,0-3.37.91-3.37,3.37v29.67c0,.28.01.54.04.78.06.54.07,1.06.57,1.65.05.06.56.44.56.44.27.13.46.23.77.36l14.93,6.26c.77.35,1.1.49,1.66.48h0c.56.01.89-.13,1.66-.48l14.93-6.26c.31-.12.5-.22.77-.36,0,0,.51-.38.56-.44.5-.59.51-1.11.57-1.65.02-.24.04-.5.04-.78V5.87c0-2.46-.91-3.37-3.37-3.37h0Z"/>
        <path class="cls-5" d="M13.45,17.45h2.95v-2.28h-2.95v-4.66h3.07v-2.28h-5.58v16.49h5.63v-2.28h-3.12v-4.97Z"/>
        <path class="cls-5" d="M34.61,17.94v3.72c0,.66-.3.97-.94.97h-.47c-.66,0-.96-.31-.96-.97v-10.41c0-.66.3-.97.96-.97h.42c.63,0,.94.31.94.97v3.23h2.46v-3.37c0-2.05-.98-3.04-3.02-3.04h-1.22c-2.04,0-3.05,1.01-3.05,3.06v10.65c0,2.05,1.01,3.06,3.05,3.06h1.24c2.04,0,3.05-1.01,3.05-3.06v-3.84h-2.46,0Z"/>
        <path class="cls-5" d="M28.41,8.21h-2.51v16.49h2.51V8.21Z"/>
        <path class="cls-5" d="M21.72,8.21h-3.94v16.49h2.51v-5.98h1.43c2.04,0,3.05-1.01,3.05-3.06v-4.38c0-2.05-1.01-3.06-3.05-3.06ZM22.26,15.54c0,.66-.3.97-.94.97h-1.03v-6.08h1.03c.63,0,.94.31.94.97v4.15Z"/>
        <path class="cls-3" d="M16.86,39.61h14.36l-7.33,2.42-7.03-2.42Z"/>
        <path class="cls-1" d="M40.16,44.2c0-.7.53-1.22,1.19-1.22s1.19.53,1.19,1.22-.53,1.22-1.19,1.22-1.19-.53-1.19-1.22ZM42.31,44.2c0-.58-.43-1.02-.97-1.02s-.97.44-.97,1.02.43,1.02.97,1.02.97-.44.97-1.02ZM40.86,43.57h.56c.28,0,.44.14.44.38,0,.21-.12.35-.3.39l.3.4v.09h-.2l-.33-.46h-.26v.46h-.21v-1.26h0ZM41.43,44.18c.14,0,.23-.07.23-.21s-.1-.2-.23-.2h-.35v.4h.35Z"/>
        <path class="cls-5" d="M13.54,33.81c-.39,0-.75-.06-1.08-.19-.33-.13-.62-.31-.86-.54-.24-.23-.43-.5-.57-.82-.14-.32-.21-.66-.21-1.04h0c0-.38.07-.72.2-1.04.14-.31.32-.59.56-.82.24-.24.52-.42.85-.55.33-.13.69-.2,1.07-.2.44,0,.82.06,1.14.19.32.13.61.31.88.54l-.81.98c-.18-.15-.36-.27-.55-.35-.19-.08-.4-.12-.65-.12-.18,0-.35.04-.5.11-.15.07-.29.17-.4.29-.11.12-.2.27-.27.44-.07.17-.1.35-.1.54h0c0,.21.03.4.1.57.07.17.16.32.28.44.12.12.26.22.43.29.16.07.35.1.54.1.32,0,.59-.07.8-.21v-.61h-.98v-1.01h2.29v2.25c-.27.22-.58.4-.94.55-.36.15-.77.22-1.22.22h0Z"/>
        <path class="cls-5" d="M18.26,28.67h1.33l2.12,5.03h-1.48l-.36-.89h-1.92l-.36.89h-1.45l2.12-5.03ZM19.47,31.73l-.56-1.42-.56,1.42h1.12Z"/>
        <path class="cls-5" d="M22.19,28.7h1.46l1.19,1.93,1.19-1.93h1.46v5h-1.37v-2.87l-1.27,1.96h-.03l-1.27-1.94v2.86h-1.35v-5Z"/>
        <path class="cls-5" d="M28.41,28.7h4.01v1.18h-2.64v.76h2.39v1.09h-2.39v.79h2.68v1.18h-4.04v-5h0Z"/>
        <path class="cls-5" d="M35.15,33.79c-.45,0-.87-.07-1.27-.21-.4-.14-.76-.35-1.06-.62l.77-.92c.5.4,1.04.6,1.61.6.18,0,.33-.03.42-.09.1-.06.15-.14.15-.25h0c0-.07-.01-.11-.04-.15-.02-.04-.07-.08-.13-.12-.06-.04-.15-.07-.26-.11-.11-.04-.25-.07-.42-.11-.27-.06-.51-.13-.74-.2-.23-.07-.43-.17-.59-.29-.17-.12-.3-.26-.4-.44-.1-.17-.15-.39-.15-.65h0c0-.25.04-.46.13-.66.09-.2.22-.36.38-.51.17-.14.37-.25.61-.33.24-.08.51-.12.8-.12.43,0,.81.06,1.14.17.33.11.64.28.91.5l-.69.98c-.23-.16-.46-.28-.7-.37-.24-.08-.47-.13-.69-.13-.17,0-.29.03-.37.09-.08.06-.12.14-.12.23h0c0,.07.01.12.04.16.03.04.07.08.14.12.06.04.15.07.26.11.11.04.25.07.42.11.28.06.54.13.77.22.23.08.43.18.59.3.16.12.28.26.37.43.09.17.13.37.13.6h0c0,.27-.05.5-.15.7-.1.2-.23.37-.41.51-.18.14-.39.25-.63.32-.25.07-.52.11-.83.11Z"/>
      </g>
    </g>
  </g>
</svg>