<?xml version="1.0" encoding="UTF-8"?>
<svg id="White" xmlns="http://www.w3.org/2000/svg" width="48" height="48" viewBox="0 0 48 48">
  <defs>
    <style>
      .cls-1 {
        fill: #fff;
        fill-rule: evenodd;
        stroke-width: 0px;
      }
    </style>
  </defs>
  <path id="Playstation" class="cls-1" d="M46.91,33.55c-.91,1.15-3.14,1.97-3.14,1.97l-16.61,5.96v-4.4l12.22-4.35c1.39-.5,1.6-1.2.47-1.57-1.13-.37-3.16-.26-4.55.24l-8.14,2.87v-4.57l.47-.16s2.35-.83,5.66-1.2c3.31-.36,7.36.05,10.54,1.26,3.58,1.13,3.99,2.8,3.08,3.95ZM28.74,26.06v-11.25c0-1.32-.24-2.54-1.48-2.88-.95-.3-1.54.58-1.54,1.9v28.17l-7.6-2.41V6c3.23.6,7.94,2.02,10.47,2.87,6.43,2.21,8.62,4.96,8.62,11.15s-3.73,8.33-8.46,6.04ZM4.18,36.63c-3.68-1.04-4.29-3.2-2.61-4.44,1.55-1.15,4.19-2.01,4.19-2.01l10.89-3.87v4.42l-7.84,2.81c-1.38.5-1.6,1.2-.47,1.57,1.13.37,3.16.26,4.55-.23l3.76-1.36v3.95c-.24.04-.5.08-.75.13-3.76.61-7.77.36-11.71-.94h0ZM44.49,38.38c.48,0,.92.18,1.26.52.34.33.52.78.52,1.26s-.19.92-.52,1.26c-.34.34-.78.52-1.26.52s-.92-.18-1.26-.52c-.34-.33-.52-.78-.52-1.26,0-.98.8-1.78,1.78-1.78ZM43.01,40.16c0,.4.15.77.43,1.04.28.28.65.43,1.05.43.82,0,1.48-.66,1.48-1.48,0-.4-.15-.77-.43-1.05-.28-.28-.65-.43-1.05-.43s-.77.15-1.05.43c-.28.28-.43.65-.43,1.05ZM45.02,39.2c.19.09.29.25.29.49,0,.12-.03.22-.08.3-.04.06-.09.1-.15.14.05.03.09.06.12.1.04.06.07.14.07.26v.25c.01.07.02.12.03.15.01.05.03.08.06.09h.03v.13h-.38v-.02s-.03-.05-.04-.08c0-.03-.01-.08-.01-.15l-.02-.31c0-.11-.04-.18-.11-.21-.04-.02-.12-.03-.21-.03h-.54v.81h-.34v-1.98h.92c.15,0,.28.02.37.07h0ZM44.07,40h.55c.11,0,.2-.02.26-.06.06-.04.08-.12.08-.23,0-.12-.04-.2-.12-.24-.05-.02-.11-.03-.19-.03h-.58v.56h0Z"/>
</svg>