<?xml version="1.0" encoding="UTF-8"?>
<svg id="White" xmlns="http://www.w3.org/2000/svg" width="48" height="48" viewBox="0 0 48 48">
  <defs>
    <style>
      .cls-1 {
        fill: #fff;
        stroke-width: 0px;
      }
    </style>
  </defs>
  <g id="Steam">
    <path class="cls-1" d="M23.96,1.08C11.92,1.08,2.05,10.37,1.12,22.16l12.28,5.08c1.07-.73,2.35-1.13,3.65-1.13.12,0,.24,0,.36,0l5.46-7.92v-.11c0-4.78,3.87-8.65,8.65-8.65s8.65,3.87,8.65,8.65-3.87,8.65-8.65,8.65h-.19l-7.79,5.56c0,.1,0,.2,0,.31,0,3.58-2.91,6.49-6.49,6.49-3.09,0-5.75-2.18-6.36-5.21l-8.78-3.64c2.72,9.63,11.56,16.68,22.06,16.68,12.66,0,22.92-10.26,22.92-22.92S36.62,1.08,23.96,1.08Z"/>
    <path class="cls-1" d="M15.48,35.85l-2.81-1.16c1.16,2.42,4.07,3.45,6.49,2.28,2.42-1.16,3.45-4.07,2.28-6.49-1.09-2.28-3.75-3.35-6.11-2.45l2.91,1.2c1.82.78,2.67,2.88,1.9,4.7-.75,1.81-2.83,2.66-4.65,1.92Z"/>
    <path class="cls-1" d="M37.28,18.1c0-3.18-2.58-5.76-5.76-5.76s-5.76,2.58-5.76,5.76,2.58,5.76,5.76,5.76c3.19,0,5.76-2.59,5.76-5.76ZM27.21,18.09c0-2.39,1.93-4.33,4.33-4.33s4.33,1.93,4.33,4.33-1.93,4.33-4.33,4.33c-2.38,0-4.33-1.94-4.33-4.33Z"/>
  </g>
</svg>