<svg width="48" height="48" viewBox="0 0 48 48" fill="none" xmlns="http://www.w3.org/2000/svg">
<path d="M28.3041 48H35.6959C42.487 48 48 42.4888 48 35.6998V12.3002C48 5.51123 42.487 0 35.6959 0H28.2579C28.0731 0 27.95 0.153945 27.95 0.30789V47.6613C27.9653 47.8461 28.1193 48 28.3041 48ZM37.436 21.5523C40.1155 21.5523 42.3022 23.7383 42.3022 26.4169C42.3022 29.0956 40.1155 31.2816 37.436 31.2816C34.7565 31.2816 32.5698 29.0956 32.5698 26.4169C32.6006 23.7383 34.7565 21.5523 37.436 21.5523ZM22.7911 0H12.3041C5.51299 0 0 5.51123 0 12.3002V35.6844C0 42.4734 5.51299 47.9846 12.3041 47.9846H22.7911C22.9759 47.9846 23.1299 47.8307 23.1299 47.6459V0.338679C23.1299 0.153945 22.9913 0 22.7911 0ZM19.2801 44.1514H12.3041C10.0404 44.1514 7.9307 43.2893 6.34456 41.6575C4.75842 40.0718 3.84986 37.9628 3.84986 35.6998V12.3002C3.84986 10.0372 4.71222 7.92816 6.34456 6.34253C7.9307 4.7569 10.0404 3.84862 12.3041 3.84862H19.2801V44.1514ZM7.46872 14.4092C7.46872 16.9031 9.50144 18.9352 11.9961 18.9352C14.4909 18.9352 16.5236 16.9031 16.5236 14.4092C16.5236 11.9153 14.4909 9.88326 11.9961 9.88326C9.47064 9.88326 7.46872 11.8845 7.46872 14.4092Z" fill="white"/>
</svg>
