<?xml version="1.0" encoding="UTF-8"?>
<svg id="White" xmlns="http://www.w3.org/2000/svg" width="48" height="48" viewBox="0 0 48 48">
  <defs>
    <style>
      .cls-1 {
        fill: #fff;
        stroke-width: 0px;
      }
    </style>
  </defs>
  <g id="Xbox">
    <path id="path4148" class="cls-1" d="M21.61,46.91c-3.54-.34-7.13-1.61-10.21-3.62-2.58-1.68-3.16-2.38-3.16-3.76,0-2.77,3.05-7.64,8.27-13.18,2.96-3.15,7.09-6.84,7.54-6.74.87.19,7.81,6.96,10.41,10.15,4.11,5.04,6,9.17,5.04,11.01-.73,1.4-5.26,4.13-8.58,5.18-2.74.87-6.34,1.23-9.31.95h0ZM4.75,36.64c-2.14-3.29-3.23-6.53-3.75-11.21-.17-1.55-.11-2.43.39-5.61.63-3.96,2.88-8.54,5.59-11.35,1.15-1.2,1.26-1.23,2.66-.76,1.71.58,3.53,1.83,6.36,4.39l1.65,1.49-.9,1.11c-4.18,5.14-8.6,12.42-10.26,16.93-.9,2.45-1.27,4.91-.88,5.93.26.69.02.43-.86-.92ZM42.4,37.2c.21-1.03-.06-2.93-.68-4.85-1.36-4.15-5.91-11.87-10.08-17.12l-1.31-1.65,1.42-1.31c1.86-1.7,3.15-2.73,4.54-3.59,1.1-.68,2.67-1.29,3.34-1.29.42,0,1.88,1.52,3.06,3.18,1.83,2.57,3.18,5.68,3.86,8.92.44,2.09.48,6.57.07,8.66-.33,1.71-1.04,3.94-1.72,5.44-.51,1.13-1.79,3.32-2.36,4.04q-.29.37-.13-.43h0ZM21.98,6.61c-1.93-.98-4.9-2.03-6.54-2.31-.58-.1-1.56-.15-2.18-.12-1.35.07-1.29,0,.88-1.03,1.81-.85,3.31-1.36,5.36-1.78,2.3-.48,6.63-.49,8.89-.01,2.45.52,5.33,1.59,6.95,2.59l.48.3-1.11-.06c-2.2-.11-5.4.78-8.84,2.45-1.04.51-1.94.91-2.01.9-.07-.01-.91-.42-1.88-.92Z"/>
  </g>
</svg>